<mxfile host="app.diagrams.net" modified="2024-04-13T12:30:57.706Z" agent="Mozilla/5.0 (Windows NT 10.0; Win64; x64) AppleWebKit/537.36 (KHTML, like Gecko) Chrome/123.0.0.0 Safari/537.36" etag="3GvKlGSwDYoKfmmBiugF" version="24.2.5" type="device" pages="3">
  <diagram name="Страница — 1" id="crCizi31j-pJZ7h6wP_A">
    <mxGraphModel dx="1241" dy="836" grid="1" gridSize="10" guides="1" tooltips="1" connect="1" arrows="1" fold="1" page="1" pageScale="1" pageWidth="827" pageHeight="1169" math="0" shadow="0">
      <root>
        <mxCell id="0" />
        <mxCell id="1" parent="0" />
        <mxCell id="bJy_tlT8Qgd3TbxkE__J-1" value="System" style="swimlane;fontStyle=0;childLayout=stackLayout;horizontal=1;startSize=30;horizontalStack=0;resizeParent=1;resizeParentMax=0;resizeLast=0;collapsible=1;marginBottom=0;whiteSpace=wrap;html=1;" parent="1" vertex="1">
          <mxGeometry x="410" y="260" width="140" height="210" as="geometry" />
        </mxCell>
        <mxCell id="bJy_tlT8Qgd3TbxkE__J-2" value="NewClientRegistration" style="text;strokeColor=none;fillColor=none;align=left;verticalAlign=middle;spacingLeft=4;spacingRight=4;overflow=hidden;points=[[0,0.5],[1,0.5]];portConstraint=eastwest;rotatable=0;whiteSpace=wrap;html=1;" parent="bJy_tlT8Qgd3TbxkE__J-1" vertex="1">
          <mxGeometry y="30" width="140" height="30" as="geometry" />
        </mxCell>
        <mxCell id="bJy_tlT8Qgd3TbxkE__J-3" value="LoginCheck" style="text;strokeColor=none;fillColor=none;align=left;verticalAlign=middle;spacingLeft=4;spacingRight=4;overflow=hidden;points=[[0,0.5],[1,0.5]];portConstraint=eastwest;rotatable=0;whiteSpace=wrap;html=1;" parent="bJy_tlT8Qgd3TbxkE__J-1" vertex="1">
          <mxGeometry y="60" width="140" height="30" as="geometry" />
        </mxCell>
        <mxCell id="bJy_tlT8Qgd3TbxkE__J-4" value="AddDeposit" style="text;strokeColor=none;fillColor=none;align=left;verticalAlign=middle;spacingLeft=4;spacingRight=4;overflow=hidden;points=[[0,0.5],[1,0.5]];portConstraint=eastwest;rotatable=0;whiteSpace=wrap;html=1;" parent="bJy_tlT8Qgd3TbxkE__J-1" vertex="1">
          <mxGeometry y="90" width="140" height="30" as="geometry" />
        </mxCell>
        <mxCell id="bJy_tlT8Qgd3TbxkE__J-19" value="RemoveDeposit" style="text;strokeColor=none;fillColor=none;align=left;verticalAlign=middle;spacingLeft=4;spacingRight=4;overflow=hidden;points=[[0,0.5],[1,0.5]];portConstraint=eastwest;rotatable=0;whiteSpace=wrap;html=1;" parent="bJy_tlT8Qgd3TbxkE__J-1" vertex="1">
          <mxGeometry y="120" width="140" height="30" as="geometry" />
        </mxCell>
        <mxCell id="bJy_tlT8Qgd3TbxkE__J-16" value="CheckCredit" style="text;strokeColor=none;fillColor=none;align=left;verticalAlign=middle;spacingLeft=4;spacingRight=4;overflow=hidden;points=[[0,0.5],[1,0.5]];portConstraint=eastwest;rotatable=0;whiteSpace=wrap;html=1;" parent="bJy_tlT8Qgd3TbxkE__J-1" vertex="1">
          <mxGeometry y="150" width="140" height="30" as="geometry" />
        </mxCell>
        <mxCell id="bJy_tlT8Qgd3TbxkE__J-89" style="edgeStyle=orthogonalEdgeStyle;rounded=0;orthogonalLoop=1;jettySize=auto;html=1;exitX=0;exitY=0.5;exitDx=0;exitDy=0;" parent="bJy_tlT8Qgd3TbxkE__J-1" source="bJy_tlT8Qgd3TbxkE__J-20" edge="1">
          <mxGeometry relative="1" as="geometry">
            <mxPoint x="-120" y="180" as="targetPoint" />
          </mxGeometry>
        </mxCell>
        <mxCell id="bJy_tlT8Qgd3TbxkE__J-90" value="Invoicing" style="edgeLabel;html=1;align=center;verticalAlign=middle;resizable=0;points=[];" parent="bJy_tlT8Qgd3TbxkE__J-89" vertex="1" connectable="0">
          <mxGeometry x="0.5096" y="-2" relative="1" as="geometry">
            <mxPoint as="offset" />
          </mxGeometry>
        </mxCell>
        <mxCell id="bJy_tlT8Qgd3TbxkE__J-20" value="CollectCredit" style="text;strokeColor=none;fillColor=none;align=left;verticalAlign=middle;spacingLeft=4;spacingRight=4;overflow=hidden;points=[[0,0.5],[1,0.5]];portConstraint=eastwest;rotatable=0;whiteSpace=wrap;html=1;" parent="bJy_tlT8Qgd3TbxkE__J-1" vertex="1">
          <mxGeometry y="180" width="140" height="30" as="geometry" />
        </mxCell>
        <mxCell id="bJy_tlT8Qgd3TbxkE__J-5" value="Customer" style="swimlane;fontStyle=0;childLayout=stackLayout;horizontal=1;startSize=30;horizontalStack=0;resizeParent=1;resizeParentMax=0;resizeLast=0;collapsible=1;marginBottom=0;whiteSpace=wrap;html=1;" parent="1" vertex="1">
          <mxGeometry x="130" y="260" width="140" height="210" as="geometry">
            <mxRectangle x="110" y="260" width="90" height="30" as="alternateBounds" />
          </mxGeometry>
        </mxCell>
        <mxCell id="bJy_tlT8Qgd3TbxkE__J-7" value="Register" style="text;strokeColor=none;fillColor=none;align=left;verticalAlign=middle;spacingLeft=4;spacingRight=4;overflow=hidden;points=[[0,0.5],[1,0.5]];portConstraint=eastwest;rotatable=0;whiteSpace=wrap;html=1;" parent="bJy_tlT8Qgd3TbxkE__J-5" vertex="1">
          <mxGeometry y="30" width="140" height="30" as="geometry" />
        </mxCell>
        <mxCell id="bJy_tlT8Qgd3TbxkE__J-8" value="Login" style="text;strokeColor=none;fillColor=none;align=left;verticalAlign=middle;spacingLeft=4;spacingRight=4;overflow=hidden;points=[[0,0.5],[1,0.5]];portConstraint=eastwest;rotatable=0;whiteSpace=wrap;html=1;" parent="bJy_tlT8Qgd3TbxkE__J-5" vertex="1">
          <mxGeometry y="60" width="140" height="30" as="geometry" />
        </mxCell>
        <mxCell id="bJy_tlT8Qgd3TbxkE__J-59" style="edgeStyle=orthogonalEdgeStyle;rounded=0;orthogonalLoop=1;jettySize=auto;html=1;exitX=1;exitY=0.5;exitDx=0;exitDy=0;" parent="bJy_tlT8Qgd3TbxkE__J-5" source="bJy_tlT8Qgd3TbxkE__J-13" edge="1">
          <mxGeometry relative="1" as="geometry">
            <mxPoint x="270" y="105" as="targetPoint" />
          </mxGeometry>
        </mxCell>
        <mxCell id="bJy_tlT8Qgd3TbxkE__J-60" value="Add deposite&amp;nbsp;&lt;div&gt;and conditions&lt;/div&gt;" style="edgeLabel;html=1;align=center;verticalAlign=middle;resizable=0;points=[];" parent="bJy_tlT8Qgd3TbxkE__J-59" vertex="1" connectable="0">
          <mxGeometry x="-0.0345" y="-1" relative="1" as="geometry">
            <mxPoint as="offset" />
          </mxGeometry>
        </mxCell>
        <mxCell id="bJy_tlT8Qgd3TbxkE__J-13" value="MakeDeposit" style="text;strokeColor=none;fillColor=none;align=left;verticalAlign=middle;spacingLeft=4;spacingRight=4;overflow=hidden;points=[[0,0.5],[1,0.5]];portConstraint=eastwest;rotatable=0;whiteSpace=wrap;html=1;" parent="bJy_tlT8Qgd3TbxkE__J-5" vertex="1">
          <mxGeometry y="90" width="140" height="30" as="geometry" />
        </mxCell>
        <mxCell id="bJy_tlT8Qgd3TbxkE__J-69" style="edgeStyle=orthogonalEdgeStyle;rounded=0;orthogonalLoop=1;jettySize=auto;html=1;exitX=1;exitY=0.5;exitDx=0;exitDy=0;" parent="bJy_tlT8Qgd3TbxkE__J-5" source="bJy_tlT8Qgd3TbxkE__J-18" edge="1">
          <mxGeometry relative="1" as="geometry">
            <mxPoint x="270" y="135" as="targetPoint" />
          </mxGeometry>
        </mxCell>
        <mxCell id="bJy_tlT8Qgd3TbxkE__J-70" value="Take money" style="edgeLabel;html=1;align=center;verticalAlign=middle;resizable=0;points=[];" parent="bJy_tlT8Qgd3TbxkE__J-69" vertex="1" connectable="0">
          <mxGeometry x="-0.0345" relative="1" as="geometry">
            <mxPoint as="offset" />
          </mxGeometry>
        </mxCell>
        <mxCell id="bJy_tlT8Qgd3TbxkE__J-18" value="CloseDeposit" style="text;strokeColor=none;fillColor=none;align=left;verticalAlign=middle;spacingLeft=4;spacingRight=4;overflow=hidden;points=[[0,0.5],[1,0.5]];portConstraint=eastwest;rotatable=0;whiteSpace=wrap;html=1;" parent="bJy_tlT8Qgd3TbxkE__J-5" vertex="1">
          <mxGeometry y="120" width="140" height="30" as="geometry" />
        </mxCell>
        <mxCell id="bJy_tlT8Qgd3TbxkE__J-71" style="edgeStyle=orthogonalEdgeStyle;rounded=0;orthogonalLoop=1;jettySize=auto;html=1;exitX=1;exitY=0.5;exitDx=0;exitDy=0;" parent="bJy_tlT8Qgd3TbxkE__J-5" source="bJy_tlT8Qgd3TbxkE__J-14" edge="1">
          <mxGeometry relative="1" as="geometry">
            <mxPoint x="270" y="165" as="targetPoint" />
          </mxGeometry>
        </mxCell>
        <mxCell id="bJy_tlT8Qgd3TbxkE__J-72" value="Add Conditions" style="edgeLabel;html=1;align=center;verticalAlign=middle;resizable=0;points=[];" parent="bJy_tlT8Qgd3TbxkE__J-71" vertex="1" connectable="0">
          <mxGeometry x="-0.0038" y="1" relative="1" as="geometry">
            <mxPoint y="-1" as="offset" />
          </mxGeometry>
        </mxCell>
        <mxCell id="bJy_tlT8Qgd3TbxkE__J-14" value="TakeCredit" style="text;strokeColor=none;fillColor=none;align=left;verticalAlign=middle;spacingLeft=4;spacingRight=4;overflow=hidden;points=[[0,0.5],[1,0.5]];portConstraint=eastwest;rotatable=0;whiteSpace=wrap;html=1;" parent="bJy_tlT8Qgd3TbxkE__J-5" vertex="1">
          <mxGeometry y="150" width="140" height="30" as="geometry" />
        </mxCell>
        <mxCell id="bJy_tlT8Qgd3TbxkE__J-17" value="PayCredit" style="text;strokeColor=none;fillColor=none;align=left;verticalAlign=middle;spacingLeft=4;spacingRight=4;overflow=hidden;points=[[0,0.5],[1,0.5]];portConstraint=eastwest;rotatable=0;whiteSpace=wrap;html=1;" parent="bJy_tlT8Qgd3TbxkE__J-5" vertex="1">
          <mxGeometry y="180" width="140" height="30" as="geometry" />
        </mxCell>
        <mxCell id="bJy_tlT8Qgd3TbxkE__J-21" value="Bank" style="swimlane;fontStyle=0;childLayout=stackLayout;horizontal=1;startSize=30;horizontalStack=0;resizeParent=1;resizeParentMax=0;resizeLast=0;collapsible=1;marginBottom=0;whiteSpace=wrap;html=1;" parent="1" vertex="1">
          <mxGeometry x="270" y="560" width="140" height="210" as="geometry" />
        </mxCell>
        <mxCell id="bJy_tlT8Qgd3TbxkE__J-22" value="AllMoneyResource" style="text;strokeColor=none;fillColor=none;align=left;verticalAlign=middle;spacingLeft=4;spacingRight=4;overflow=hidden;points=[[0,0.5],[1,0.5]];portConstraint=eastwest;rotatable=0;whiteSpace=wrap;html=1;" parent="bJy_tlT8Qgd3TbxkE__J-21" vertex="1">
          <mxGeometry y="30" width="140" height="30" as="geometry" />
        </mxCell>
        <mxCell id="bJy_tlT8Qgd3TbxkE__J-23" value="IncomePerMonth" style="text;strokeColor=none;fillColor=none;align=left;verticalAlign=middle;spacingLeft=4;spacingRight=4;overflow=hidden;points=[[0,0.5],[1,0.5]];portConstraint=eastwest;rotatable=0;whiteSpace=wrap;html=1;" parent="bJy_tlT8Qgd3TbxkE__J-21" vertex="1">
          <mxGeometry y="60" width="140" height="30" as="geometry" />
        </mxCell>
        <mxCell id="bJy_tlT8Qgd3TbxkE__J-24" value="CostPerMonth" style="text;strokeColor=none;fillColor=none;align=left;verticalAlign=middle;spacingLeft=4;spacingRight=4;overflow=hidden;points=[[0,0.5],[1,0.5]];portConstraint=eastwest;rotatable=0;whiteSpace=wrap;html=1;" parent="bJy_tlT8Qgd3TbxkE__J-21" vertex="1">
          <mxGeometry y="90" width="140" height="30" as="geometry" />
        </mxCell>
        <mxCell id="bJy_tlT8Qgd3TbxkE__J-79" style="edgeStyle=orthogonalEdgeStyle;rounded=0;orthogonalLoop=1;jettySize=auto;html=1;exitX=0;exitY=0.5;exitDx=0;exitDy=0;entryX=0;entryY=0.5;entryDx=0;entryDy=0;" parent="bJy_tlT8Qgd3TbxkE__J-21" source="bJy_tlT8Qgd3TbxkE__J-25" target="bJy_tlT8Qgd3TbxkE__J-23" edge="1">
          <mxGeometry relative="1" as="geometry" />
        </mxCell>
        <mxCell id="bJy_tlT8Qgd3TbxkE__J-25" value="RecalculateIncome" style="text;strokeColor=none;fillColor=none;align=left;verticalAlign=middle;spacingLeft=4;spacingRight=4;overflow=hidden;points=[[0,0.5],[1,0.5]];portConstraint=eastwest;rotatable=0;whiteSpace=wrap;html=1;" parent="bJy_tlT8Qgd3TbxkE__J-21" vertex="1">
          <mxGeometry y="120" width="140" height="30" as="geometry" />
        </mxCell>
        <mxCell id="bJy_tlT8Qgd3TbxkE__J-80" style="edgeStyle=orthogonalEdgeStyle;rounded=0;orthogonalLoop=1;jettySize=auto;html=1;exitX=0;exitY=0.5;exitDx=0;exitDy=0;entryX=0;entryY=0.5;entryDx=0;entryDy=0;" parent="bJy_tlT8Qgd3TbxkE__J-21" source="bJy_tlT8Qgd3TbxkE__J-26" target="bJy_tlT8Qgd3TbxkE__J-24" edge="1">
          <mxGeometry relative="1" as="geometry">
            <Array as="points">
              <mxPoint x="-30" y="165" />
              <mxPoint x="-30" y="105" />
            </Array>
          </mxGeometry>
        </mxCell>
        <mxCell id="bJy_tlT8Qgd3TbxkE__J-26" value="RecalculateCost" style="text;strokeColor=none;fillColor=none;align=left;verticalAlign=middle;spacingLeft=4;spacingRight=4;overflow=hidden;points=[[0,0.5],[1,0.5]];portConstraint=eastwest;rotatable=0;whiteSpace=wrap;html=1;" parent="bJy_tlT8Qgd3TbxkE__J-21" vertex="1">
          <mxGeometry y="150" width="140" height="30" as="geometry" />
        </mxCell>
        <mxCell id="bJy_tlT8Qgd3TbxkE__J-81" value="IfPossible" style="text;strokeColor=none;fillColor=none;align=left;verticalAlign=middle;spacingLeft=4;spacingRight=4;overflow=hidden;points=[[0,0.5],[1,0.5]];portConstraint=eastwest;rotatable=0;whiteSpace=wrap;html=1;" parent="bJy_tlT8Qgd3TbxkE__J-21" vertex="1">
          <mxGeometry y="180" width="140" height="30" as="geometry" />
        </mxCell>
        <mxCell id="bJy_tlT8Qgd3TbxkE__J-27" value="Data Base &quot;Customers&quot;" style="swimlane;fontStyle=0;childLayout=stackLayout;horizontal=1;startSize=30;horizontalStack=0;resizeParent=1;resizeParentMax=0;resizeLast=0;collapsible=1;marginBottom=0;whiteSpace=wrap;html=1;" parent="1" vertex="1">
          <mxGeometry x="470" y="850" width="140" height="180" as="geometry" />
        </mxCell>
        <mxCell id="bJy_tlT8Qgd3TbxkE__J-28" value="UniqId" style="text;strokeColor=none;fillColor=none;align=left;verticalAlign=middle;spacingLeft=4;spacingRight=4;overflow=hidden;points=[[0,0.5],[1,0.5]];portConstraint=eastwest;rotatable=0;whiteSpace=wrap;html=1;" parent="bJy_tlT8Qgd3TbxkE__J-27" vertex="1">
          <mxGeometry y="30" width="140" height="30" as="geometry" />
        </mxCell>
        <mxCell id="bJy_tlT8Qgd3TbxkE__J-29" value="Login" style="text;strokeColor=none;fillColor=none;align=left;verticalAlign=middle;spacingLeft=4;spacingRight=4;overflow=hidden;points=[[0,0.5],[1,0.5]];portConstraint=eastwest;rotatable=0;whiteSpace=wrap;html=1;" parent="bJy_tlT8Qgd3TbxkE__J-27" vertex="1">
          <mxGeometry y="60" width="140" height="30" as="geometry" />
        </mxCell>
        <mxCell id="bJy_tlT8Qgd3TbxkE__J-56" value="Pasword" style="text;strokeColor=none;fillColor=none;align=left;verticalAlign=middle;spacingLeft=4;spacingRight=4;overflow=hidden;points=[[0,0.5],[1,0.5]];portConstraint=eastwest;rotatable=0;whiteSpace=wrap;html=1;" parent="bJy_tlT8Qgd3TbxkE__J-27" vertex="1">
          <mxGeometry y="90" width="140" height="30" as="geometry" />
        </mxCell>
        <mxCell id="bJy_tlT8Qgd3TbxkE__J-30" value="Name" style="text;strokeColor=none;fillColor=none;align=left;verticalAlign=middle;spacingLeft=4;spacingRight=4;overflow=hidden;points=[[0,0.5],[1,0.5]];portConstraint=eastwest;rotatable=0;whiteSpace=wrap;html=1;" parent="bJy_tlT8Qgd3TbxkE__J-27" vertex="1">
          <mxGeometry y="120" width="140" height="30" as="geometry" />
        </mxCell>
        <mxCell id="bJy_tlT8Qgd3TbxkE__J-31" value="Rating" style="text;strokeColor=none;fillColor=none;align=left;verticalAlign=middle;spacingLeft=4;spacingRight=4;overflow=hidden;points=[[0,0.5],[1,0.5]];portConstraint=eastwest;rotatable=0;whiteSpace=wrap;html=1;" parent="bJy_tlT8Qgd3TbxkE__J-27" vertex="1">
          <mxGeometry y="150" width="140" height="30" as="geometry" />
        </mxCell>
        <mxCell id="bJy_tlT8Qgd3TbxkE__J-32" value="Data Base &quot;Credits&quot;" style="swimlane;fontStyle=0;childLayout=stackLayout;horizontal=1;startSize=30;horizontalStack=0;resizeParent=1;resizeParentMax=0;resizeLast=0;collapsible=1;marginBottom=0;whiteSpace=wrap;html=1;" parent="1" vertex="1">
          <mxGeometry x="80" y="850" width="140" height="210" as="geometry" />
        </mxCell>
        <mxCell id="bJy_tlT8Qgd3TbxkE__J-33" value="ContractNumber" style="text;strokeColor=none;fillColor=none;align=left;verticalAlign=middle;spacingLeft=4;spacingRight=4;overflow=hidden;points=[[0,0.5],[1,0.5]];portConstraint=eastwest;rotatable=0;whiteSpace=wrap;html=1;" parent="bJy_tlT8Qgd3TbxkE__J-32" vertex="1">
          <mxGeometry y="30" width="140" height="30" as="geometry" />
        </mxCell>
        <mxCell id="bJy_tlT8Qgd3TbxkE__J-34" value="CustomerId" style="text;strokeColor=none;fillColor=none;align=left;verticalAlign=middle;spacingLeft=4;spacingRight=4;overflow=hidden;points=[[0,0.5],[1,0.5]];portConstraint=eastwest;rotatable=0;whiteSpace=wrap;html=1;" parent="bJy_tlT8Qgd3TbxkE__J-32" vertex="1">
          <mxGeometry y="60" width="140" height="30" as="geometry" />
        </mxCell>
        <mxCell id="bJy_tlT8Qgd3TbxkE__J-35" value="Amount" style="text;strokeColor=none;fillColor=none;align=left;verticalAlign=middle;spacingLeft=4;spacingRight=4;overflow=hidden;points=[[0,0.5],[1,0.5]];portConstraint=eastwest;rotatable=0;whiteSpace=wrap;html=1;" parent="bJy_tlT8Qgd3TbxkE__J-32" vertex="1">
          <mxGeometry y="90" width="140" height="30" as="geometry" />
        </mxCell>
        <mxCell id="bJy_tlT8Qgd3TbxkE__J-36" value="Period" style="text;strokeColor=none;fillColor=none;align=left;verticalAlign=middle;spacingLeft=4;spacingRight=4;overflow=hidden;points=[[0,0.5],[1,0.5]];portConstraint=eastwest;rotatable=0;whiteSpace=wrap;html=1;" parent="bJy_tlT8Qgd3TbxkE__J-32" vertex="1">
          <mxGeometry y="120" width="140" height="30" as="geometry" />
        </mxCell>
        <mxCell id="bJy_tlT8Qgd3TbxkE__J-37" value="InterestRate" style="text;strokeColor=none;fillColor=none;align=left;verticalAlign=middle;spacingLeft=4;spacingRight=4;overflow=hidden;points=[[0,0.5],[1,0.5]];portConstraint=eastwest;rotatable=0;whiteSpace=wrap;html=1;" parent="bJy_tlT8Qgd3TbxkE__J-32" vertex="1">
          <mxGeometry y="150" width="140" height="30" as="geometry" />
        </mxCell>
        <mxCell id="bJy_tlT8Qgd3TbxkE__J-44" value="Closed" style="text;strokeColor=none;fillColor=none;align=left;verticalAlign=middle;spacingLeft=4;spacingRight=4;overflow=hidden;points=[[0,0.5],[1,0.5]];portConstraint=eastwest;rotatable=0;whiteSpace=wrap;html=1;" parent="bJy_tlT8Qgd3TbxkE__J-32" vertex="1">
          <mxGeometry y="180" width="140" height="30" as="geometry" />
        </mxCell>
        <mxCell id="bJy_tlT8Qgd3TbxkE__J-38" value="Data Base &quot;Deposites&quot;" style="swimlane;fontStyle=0;childLayout=stackLayout;horizontal=1;startSize=30;horizontalStack=0;resizeParent=1;resizeParentMax=0;resizeLast=0;collapsible=1;marginBottom=0;whiteSpace=wrap;html=1;" parent="1" vertex="1">
          <mxGeometry x="280" y="850" width="140" height="210" as="geometry" />
        </mxCell>
        <mxCell id="bJy_tlT8Qgd3TbxkE__J-39" value="ContractNumber" style="text;strokeColor=none;fillColor=none;align=left;verticalAlign=middle;spacingLeft=4;spacingRight=4;overflow=hidden;points=[[0,0.5],[1,0.5]];portConstraint=eastwest;rotatable=0;whiteSpace=wrap;html=1;" parent="bJy_tlT8Qgd3TbxkE__J-38" vertex="1">
          <mxGeometry y="30" width="140" height="30" as="geometry" />
        </mxCell>
        <mxCell id="bJy_tlT8Qgd3TbxkE__J-40" value="CustomerId" style="text;strokeColor=none;fillColor=none;align=left;verticalAlign=middle;spacingLeft=4;spacingRight=4;overflow=hidden;points=[[0,0.5],[1,0.5]];portConstraint=eastwest;rotatable=0;whiteSpace=wrap;html=1;" parent="bJy_tlT8Qgd3TbxkE__J-38" vertex="1">
          <mxGeometry y="60" width="140" height="30" as="geometry" />
        </mxCell>
        <mxCell id="bJy_tlT8Qgd3TbxkE__J-41" value="Amount" style="text;strokeColor=none;fillColor=none;align=left;verticalAlign=middle;spacingLeft=4;spacingRight=4;overflow=hidden;points=[[0,0.5],[1,0.5]];portConstraint=eastwest;rotatable=0;whiteSpace=wrap;html=1;" parent="bJy_tlT8Qgd3TbxkE__J-38" vertex="1">
          <mxGeometry y="90" width="140" height="30" as="geometry" />
        </mxCell>
        <mxCell id="bJy_tlT8Qgd3TbxkE__J-42" value="Period" style="text;strokeColor=none;fillColor=none;align=left;verticalAlign=middle;spacingLeft=4;spacingRight=4;overflow=hidden;points=[[0,0.5],[1,0.5]];portConstraint=eastwest;rotatable=0;whiteSpace=wrap;html=1;" parent="bJy_tlT8Qgd3TbxkE__J-38" vertex="1">
          <mxGeometry y="120" width="140" height="30" as="geometry" />
        </mxCell>
        <mxCell id="bJy_tlT8Qgd3TbxkE__J-43" value="InterestRate" style="text;strokeColor=none;fillColor=none;align=left;verticalAlign=middle;spacingLeft=4;spacingRight=4;overflow=hidden;points=[[0,0.5],[1,0.5]];portConstraint=eastwest;rotatable=0;whiteSpace=wrap;html=1;" parent="bJy_tlT8Qgd3TbxkE__J-38" vertex="1">
          <mxGeometry y="150" width="140" height="30" as="geometry" />
        </mxCell>
        <mxCell id="bJy_tlT8Qgd3TbxkE__J-45" value="Closed" style="text;strokeColor=none;fillColor=none;align=left;verticalAlign=middle;spacingLeft=4;spacingRight=4;overflow=hidden;points=[[0,0.5],[1,0.5]];portConstraint=eastwest;rotatable=0;whiteSpace=wrap;html=1;" parent="bJy_tlT8Qgd3TbxkE__J-38" vertex="1">
          <mxGeometry y="180" width="140" height="30" as="geometry" />
        </mxCell>
        <mxCell id="bJy_tlT8Qgd3TbxkE__J-46" style="edgeStyle=orthogonalEdgeStyle;rounded=0;orthogonalLoop=1;jettySize=auto;html=1;exitX=1;exitY=0.5;exitDx=0;exitDy=0;entryX=0.5;entryY=0;entryDx=0;entryDy=0;" parent="1" source="bJy_tlT8Qgd3TbxkE__J-7" target="bJy_tlT8Qgd3TbxkE__J-1" edge="1">
          <mxGeometry relative="1" as="geometry">
            <mxPoint x="410" y="230" as="targetPoint" />
            <Array as="points">
              <mxPoint x="330" y="305" />
              <mxPoint x="330" y="230" />
              <mxPoint x="480" y="230" />
            </Array>
          </mxGeometry>
        </mxCell>
        <mxCell id="bJy_tlT8Qgd3TbxkE__J-49" value="Add Login and password" style="edgeLabel;html=1;align=center;verticalAlign=middle;resizable=0;points=[];" parent="bJy_tlT8Qgd3TbxkE__J-46" vertex="1" connectable="0">
          <mxGeometry x="-0.2124" y="1" relative="1" as="geometry">
            <mxPoint x="1" y="29" as="offset" />
          </mxGeometry>
        </mxCell>
        <mxCell id="bJy_tlT8Qgd3TbxkE__J-47" style="edgeStyle=orthogonalEdgeStyle;rounded=0;orthogonalLoop=1;jettySize=auto;html=1;exitX=1;exitY=0.5;exitDx=0;exitDy=0;entryX=0.993;entryY=0.113;entryDx=0;entryDy=0;entryPerimeter=0;" parent="1" source="bJy_tlT8Qgd3TbxkE__J-2" target="bJy_tlT8Qgd3TbxkE__J-27" edge="1">
          <mxGeometry relative="1" as="geometry">
            <Array as="points">
              <mxPoint x="710" y="305" />
              <mxPoint x="710" y="857" />
              <mxPoint x="609" y="857" />
            </Array>
          </mxGeometry>
        </mxCell>
        <mxCell id="bJy_tlT8Qgd3TbxkE__J-48" value="Check date and add new client" style="edgeLabel;html=1;align=center;verticalAlign=middle;resizable=0;points=[];" parent="bJy_tlT8Qgd3TbxkE__J-47" vertex="1" connectable="0">
          <mxGeometry x="0.0715" y="-1" relative="1" as="geometry">
            <mxPoint as="offset" />
          </mxGeometry>
        </mxCell>
        <mxCell id="bJy_tlT8Qgd3TbxkE__J-61" style="edgeStyle=orthogonalEdgeStyle;rounded=0;orthogonalLoop=1;jettySize=auto;html=1;exitX=1;exitY=0.5;exitDx=0;exitDy=0;entryX=0.5;entryY=0;entryDx=0;entryDy=0;" parent="1" source="bJy_tlT8Qgd3TbxkE__J-4" target="bJy_tlT8Qgd3TbxkE__J-21" edge="1">
          <mxGeometry relative="1" as="geometry">
            <Array as="points">
              <mxPoint x="570" y="365" />
              <mxPoint x="570" y="510" />
              <mxPoint x="340" y="510" />
            </Array>
          </mxGeometry>
        </mxCell>
        <mxCell id="bJy_tlT8Qgd3TbxkE__J-62" value="Add resourse" style="edgeLabel;html=1;align=center;verticalAlign=middle;resizable=0;points=[];" parent="bJy_tlT8Qgd3TbxkE__J-61" vertex="1" connectable="0">
          <mxGeometry x="0.2494" y="1" relative="1" as="geometry">
            <mxPoint as="offset" />
          </mxGeometry>
        </mxCell>
        <mxCell id="bJy_tlT8Qgd3TbxkE__J-63" style="edgeStyle=orthogonalEdgeStyle;rounded=0;orthogonalLoop=1;jettySize=auto;html=1;exitX=1;exitY=0.5;exitDx=0;exitDy=0;entryX=0.5;entryY=0;entryDx=0;entryDy=0;" parent="1" source="bJy_tlT8Qgd3TbxkE__J-4" target="bJy_tlT8Qgd3TbxkE__J-38" edge="1">
          <mxGeometry relative="1" as="geometry">
            <mxPoint x="350" y="830" as="targetPoint" />
            <Array as="points">
              <mxPoint x="570" y="365" />
              <mxPoint x="570" y="800" />
              <mxPoint x="351" y="800" />
            </Array>
          </mxGeometry>
        </mxCell>
        <mxCell id="bJy_tlT8Qgd3TbxkE__J-64" value="Add Deposite" style="edgeLabel;html=1;align=center;verticalAlign=middle;resizable=0;points=[];" parent="bJy_tlT8Qgd3TbxkE__J-63" vertex="1" connectable="0">
          <mxGeometry x="0.479" y="-2" relative="1" as="geometry">
            <mxPoint as="offset" />
          </mxGeometry>
        </mxCell>
        <mxCell id="bJy_tlT8Qgd3TbxkE__J-65" style="edgeStyle=orthogonalEdgeStyle;rounded=0;orthogonalLoop=1;jettySize=auto;html=1;exitX=1;exitY=0.5;exitDx=0;exitDy=0;entryX=0.5;entryY=0;entryDx=0;entryDy=0;" parent="1" source="bJy_tlT8Qgd3TbxkE__J-19" target="bJy_tlT8Qgd3TbxkE__J-38" edge="1">
          <mxGeometry relative="1" as="geometry">
            <Array as="points">
              <mxPoint x="560" y="395" />
              <mxPoint x="560" y="780" />
              <mxPoint x="350" y="780" />
            </Array>
          </mxGeometry>
        </mxCell>
        <mxCell id="bJy_tlT8Qgd3TbxkE__J-66" value="Remove Deposite" style="edgeLabel;html=1;align=center;verticalAlign=middle;resizable=0;points=[];" parent="bJy_tlT8Qgd3TbxkE__J-65" vertex="1" connectable="0">
          <mxGeometry x="0.4165" relative="1" as="geometry">
            <mxPoint as="offset" />
          </mxGeometry>
        </mxCell>
        <mxCell id="bJy_tlT8Qgd3TbxkE__J-67" style="edgeStyle=orthogonalEdgeStyle;rounded=0;orthogonalLoop=1;jettySize=auto;html=1;exitX=1;exitY=0.5;exitDx=0;exitDy=0;entryX=1.007;entryY=0.089;entryDx=0;entryDy=0;entryPerimeter=0;" parent="1" source="bJy_tlT8Qgd3TbxkE__J-19" target="bJy_tlT8Qgd3TbxkE__J-21" edge="1">
          <mxGeometry relative="1" as="geometry">
            <Array as="points">
              <mxPoint x="560" y="395" />
              <mxPoint x="560" y="576" />
            </Array>
          </mxGeometry>
        </mxCell>
        <mxCell id="bJy_tlT8Qgd3TbxkE__J-68" value="Take Resourse" style="edgeLabel;html=1;align=center;verticalAlign=middle;resizable=0;points=[];" parent="bJy_tlT8Qgd3TbxkE__J-67" vertex="1" connectable="0">
          <mxGeometry x="0.5705" y="1" relative="1" as="geometry">
            <mxPoint as="offset" />
          </mxGeometry>
        </mxCell>
        <mxCell id="bJy_tlT8Qgd3TbxkE__J-57" style="edgeStyle=orthogonalEdgeStyle;rounded=0;orthogonalLoop=1;jettySize=auto;html=1;exitX=1;exitY=0.5;exitDx=0;exitDy=0;entryX=0.936;entryY=-0.017;entryDx=0;entryDy=0;entryPerimeter=0;" parent="1" source="bJy_tlT8Qgd3TbxkE__J-3" target="bJy_tlT8Qgd3TbxkE__J-27" edge="1">
          <mxGeometry relative="1" as="geometry">
            <mxPoint x="600" y="820" as="targetPoint" />
          </mxGeometry>
        </mxCell>
        <mxCell id="bJy_tlT8Qgd3TbxkE__J-58" value="Check login and password" style="edgeLabel;html=1;align=center;verticalAlign=middle;resizable=0;points=[];" parent="bJy_tlT8Qgd3TbxkE__J-57" vertex="1" connectable="0">
          <mxGeometry x="0.0887" y="4" relative="1" as="geometry">
            <mxPoint x="36" y="-65" as="offset" />
          </mxGeometry>
        </mxCell>
        <mxCell id="bJy_tlT8Qgd3TbxkE__J-75" style="edgeStyle=orthogonalEdgeStyle;rounded=0;orthogonalLoop=1;jettySize=auto;html=1;entryX=1;entryY=0.5;entryDx=0;entryDy=0;" parent="1" edge="1">
          <mxGeometry relative="1" as="geometry">
            <mxPoint x="550" y="460" as="sourcePoint" />
            <mxPoint x="410" y="754" as="targetPoint" />
            <Array as="points">
              <mxPoint x="550" y="420" />
              <mxPoint x="580" y="420" />
              <mxPoint x="580" y="754" />
            </Array>
          </mxGeometry>
        </mxCell>
        <mxCell id="bJy_tlT8Qgd3TbxkE__J-78" value="Check possibility of&lt;div&gt;issuing a credit&lt;/div&gt;" style="edgeLabel;html=1;align=center;verticalAlign=middle;resizable=0;points=[];" parent="bJy_tlT8Qgd3TbxkE__J-75" vertex="1" connectable="0">
          <mxGeometry x="0.6851" relative="1" as="geometry">
            <mxPoint as="offset" />
          </mxGeometry>
        </mxCell>
        <mxCell id="bJy_tlT8Qgd3TbxkE__J-82" style="edgeStyle=orthogonalEdgeStyle;rounded=0;orthogonalLoop=1;jettySize=auto;html=1;exitX=0;exitY=0.5;exitDx=0;exitDy=0;entryX=0.5;entryY=0;entryDx=0;entryDy=0;" parent="1" source="bJy_tlT8Qgd3TbxkE__J-81" target="bJy_tlT8Qgd3TbxkE__J-32" edge="1">
          <mxGeometry relative="1" as="geometry" />
        </mxCell>
        <mxCell id="bJy_tlT8Qgd3TbxkE__J-83" value="Add Credit" style="edgeLabel;html=1;align=center;verticalAlign=middle;resizable=0;points=[];" parent="bJy_tlT8Qgd3TbxkE__J-82" vertex="1" connectable="0">
          <mxGeometry x="-0.4326" relative="1" as="geometry">
            <mxPoint x="-59" y="35" as="offset" />
          </mxGeometry>
        </mxCell>
        <mxCell id="bJy_tlT8Qgd3TbxkE__J-84" style="edgeStyle=orthogonalEdgeStyle;rounded=0;orthogonalLoop=1;jettySize=auto;html=1;exitX=0;exitY=0.5;exitDx=0;exitDy=0;entryX=-0.007;entryY=0.052;entryDx=0;entryDy=0;entryPerimeter=0;" parent="1" source="bJy_tlT8Qgd3TbxkE__J-81" target="bJy_tlT8Qgd3TbxkE__J-5" edge="1">
          <mxGeometry relative="1" as="geometry">
            <Array as="points">
              <mxPoint x="70" y="755" />
              <mxPoint x="70" y="271" />
            </Array>
          </mxGeometry>
        </mxCell>
        <mxCell id="bJy_tlT8Qgd3TbxkE__J-85" value="Give credit" style="edgeLabel;html=1;align=center;verticalAlign=middle;resizable=0;points=[];" parent="bJy_tlT8Qgd3TbxkE__J-84" vertex="1" connectable="0">
          <mxGeometry x="0.1923" y="3" relative="1" as="geometry">
            <mxPoint as="offset" />
          </mxGeometry>
        </mxCell>
        <mxCell id="bJy_tlT8Qgd3TbxkE__J-87" style="edgeStyle=orthogonalEdgeStyle;rounded=0;orthogonalLoop=1;jettySize=auto;html=1;exitX=-0.007;exitY=0.09;exitDx=0;exitDy=0;entryX=-0.021;entryY=0.1;entryDx=0;entryDy=0;entryPerimeter=0;exitPerimeter=0;" parent="1" source="bJy_tlT8Qgd3TbxkE__J-21" target="bJy_tlT8Qgd3TbxkE__J-5" edge="1">
          <mxGeometry relative="1" as="geometry">
            <Array as="points">
              <mxPoint x="100" y="579" />
              <mxPoint x="100" y="281" />
            </Array>
          </mxGeometry>
        </mxCell>
        <mxCell id="bJy_tlT8Qgd3TbxkE__J-88" value="Payment" style="edgeLabel;html=1;align=center;verticalAlign=middle;resizable=0;points=[];" parent="bJy_tlT8Qgd3TbxkE__J-87" vertex="1" connectable="0">
          <mxGeometry x="0.2791" y="4" relative="1" as="geometry">
            <mxPoint as="offset" />
          </mxGeometry>
        </mxCell>
        <mxCell id="bJy_tlT8Qgd3TbxkE__J-91" style="edgeStyle=orthogonalEdgeStyle;rounded=0;orthogonalLoop=1;jettySize=auto;html=1;exitX=1;exitY=0.5;exitDx=0;exitDy=0;entryX=0.25;entryY=0;entryDx=0;entryDy=0;" parent="1" source="bJy_tlT8Qgd3TbxkE__J-17" target="bJy_tlT8Qgd3TbxkE__J-21" edge="1">
          <mxGeometry relative="1" as="geometry" />
        </mxCell>
        <mxCell id="bJy_tlT8Qgd3TbxkE__J-92" value="Pay part or all credite" style="edgeLabel;html=1;align=center;verticalAlign=middle;resizable=0;points=[];" parent="bJy_tlT8Qgd3TbxkE__J-91" vertex="1" connectable="0">
          <mxGeometry x="0.2429" relative="1" as="geometry">
            <mxPoint x="5" y="-17" as="offset" />
          </mxGeometry>
        </mxCell>
        <mxCell id="bJy_tlT8Qgd3TbxkE__J-93" style="edgeStyle=orthogonalEdgeStyle;rounded=0;orthogonalLoop=1;jettySize=auto;html=1;exitX=1;exitY=0.5;exitDx=0;exitDy=0;entryX=0.25;entryY=0;entryDx=0;entryDy=0;" parent="1" source="bJy_tlT8Qgd3TbxkE__J-17" target="bJy_tlT8Qgd3TbxkE__J-32" edge="1">
          <mxGeometry relative="1" as="geometry">
            <Array as="points">
              <mxPoint x="290" y="455" />
              <mxPoint x="290" y="540" />
              <mxPoint x="115" y="540" />
            </Array>
          </mxGeometry>
        </mxCell>
        <mxCell id="bJy_tlT8Qgd3TbxkE__J-94" value="Close credit" style="edgeLabel;html=1;align=center;verticalAlign=middle;resizable=0;points=[];" parent="bJy_tlT8Qgd3TbxkE__J-93" vertex="1" connectable="0">
          <mxGeometry x="0.478" y="-2" relative="1" as="geometry">
            <mxPoint as="offset" />
          </mxGeometry>
        </mxCell>
        <mxCell id="bJy_tlT8Qgd3TbxkE__J-53" style="edgeStyle=orthogonalEdgeStyle;rounded=0;orthogonalLoop=1;jettySize=auto;html=1;exitX=1;exitY=0.5;exitDx=0;exitDy=0;entryX=-0.021;entryY=0.071;entryDx=0;entryDy=0;entryPerimeter=0;" parent="1" source="bJy_tlT8Qgd3TbxkE__J-8" target="bJy_tlT8Qgd3TbxkE__J-1" edge="1">
          <mxGeometry relative="1" as="geometry">
            <mxPoint x="400" y="240" as="targetPoint" />
            <Array as="points">
              <mxPoint x="390" y="335" />
              <mxPoint x="390" y="275" />
            </Array>
          </mxGeometry>
        </mxCell>
        <mxCell id="bJy_tlT8Qgd3TbxkE__J-55" value="Enter login and password" style="edgeLabel;html=1;align=center;verticalAlign=middle;resizable=0;points=[];" parent="bJy_tlT8Qgd3TbxkE__J-53" vertex="1" connectable="0">
          <mxGeometry x="-0.4235" y="-1" relative="1" as="geometry">
            <mxPoint as="offset" />
          </mxGeometry>
        </mxCell>
        <mxCell id="bJy_tlT8Qgd3TbxkE__J-95" value="" style="shape=umlActor;verticalLabelPosition=bottom;verticalAlign=top;html=1;" parent="1" vertex="1">
          <mxGeometry x="185" y="190" width="30" height="60" as="geometry" />
        </mxCell>
        <mxCell id="bJy_tlT8Qgd3TbxkE__J-97" style="edgeStyle=orthogonalEdgeStyle;rounded=0;orthogonalLoop=1;jettySize=auto;html=1;exitX=1;exitY=0.5;exitDx=0;exitDy=0;entryX=1;entryY=0.5;entryDx=0;entryDy=0;" parent="1" source="bJy_tlT8Qgd3TbxkE__J-19" target="bJy_tlT8Qgd3TbxkE__J-25" edge="1">
          <mxGeometry relative="1" as="geometry">
            <Array as="points">
              <mxPoint x="550" y="420" />
              <mxPoint x="580" y="420" />
              <mxPoint x="580" y="695" />
            </Array>
          </mxGeometry>
        </mxCell>
        <mxCell id="bJy_tlT8Qgd3TbxkE__J-99" value="Recalculate" style="edgeLabel;html=1;align=center;verticalAlign=middle;resizable=0;points=[];" parent="bJy_tlT8Qgd3TbxkE__J-97" vertex="1" connectable="0">
          <mxGeometry x="0.684" relative="1" as="geometry">
            <mxPoint as="offset" />
          </mxGeometry>
        </mxCell>
        <mxCell id="bJy_tlT8Qgd3TbxkE__J-98" style="edgeStyle=orthogonalEdgeStyle;rounded=0;orthogonalLoop=1;jettySize=auto;html=1;exitX=1;exitY=0.5;exitDx=0;exitDy=0;entryX=1;entryY=0.5;entryDx=0;entryDy=0;" parent="1" target="bJy_tlT8Qgd3TbxkE__J-26" edge="1">
          <mxGeometry relative="1" as="geometry">
            <mxPoint x="560" y="405" as="sourcePoint" />
            <mxPoint x="420" y="705" as="targetPoint" />
            <Array as="points">
              <mxPoint x="560" y="420" />
              <mxPoint x="580" y="420" />
              <mxPoint x="580" y="725" />
            </Array>
          </mxGeometry>
        </mxCell>
        <mxCell id="bJy_tlT8Qgd3TbxkE__J-100" value="Recalculate" style="edgeLabel;html=1;align=center;verticalAlign=middle;resizable=0;points=[];" parent="bJy_tlT8Qgd3TbxkE__J-98" vertex="1" connectable="0">
          <mxGeometry x="0.7176" y="2" relative="1" as="geometry">
            <mxPoint x="8" y="-2" as="offset" />
          </mxGeometry>
        </mxCell>
      </root>
    </mxGraphModel>
  </diagram>
  <diagram id="WaiYcrXuNfA6s-Pw_EK_" name="ER">
    <mxGraphModel dx="1331" dy="-173" grid="0" gridSize="10" guides="1" tooltips="1" connect="1" arrows="1" fold="1" page="0" pageScale="1" pageWidth="827" pageHeight="1169" math="0" shadow="0">
      <root>
        <mxCell id="0" />
        <mxCell id="1" parent="0" />
        <mxCell id="MLYAWlxQz7Xd01DrlsvW-24" value="Data Base &quot;Credits&quot;" style="shape=table;startSize=30;container=1;collapsible=0;childLayout=tableLayout;fixedRows=1;rowLines=0;fontStyle=0;strokeColor=default;fontSize=16;" vertex="1" parent="1">
          <mxGeometry x="-147" y="1060" width="180" height="210" as="geometry" />
        </mxCell>
        <mxCell id="MLYAWlxQz7Xd01DrlsvW-25" value="" style="shape=tableRow;horizontal=0;startSize=0;swimlaneHead=0;swimlaneBody=0;top=0;left=0;bottom=0;right=0;collapsible=0;dropTarget=0;fillColor=none;points=[[0,0.5],[1,0.5]];portConstraint=eastwest;strokeColor=inherit;fontSize=16;" vertex="1" parent="MLYAWlxQz7Xd01DrlsvW-24">
          <mxGeometry y="30" width="180" height="30" as="geometry" />
        </mxCell>
        <mxCell id="MLYAWlxQz7Xd01DrlsvW-26" value="PK" style="shape=partialRectangle;html=1;whiteSpace=wrap;connectable=0;fillColor=none;top=0;left=0;bottom=0;right=0;overflow=hidden;pointerEvents=1;strokeColor=inherit;fontSize=16;" vertex="1" parent="MLYAWlxQz7Xd01DrlsvW-25">
          <mxGeometry width="40" height="30" as="geometry">
            <mxRectangle width="40" height="30" as="alternateBounds" />
          </mxGeometry>
        </mxCell>
        <mxCell id="MLYAWlxQz7Xd01DrlsvW-27" value="ContractNumber" style="shape=partialRectangle;html=1;whiteSpace=wrap;connectable=0;fillColor=none;top=0;left=0;bottom=0;right=0;align=left;spacingLeft=6;overflow=hidden;strokeColor=inherit;fontSize=16;" vertex="1" parent="MLYAWlxQz7Xd01DrlsvW-25">
          <mxGeometry x="40" width="140" height="30" as="geometry">
            <mxRectangle width="140" height="30" as="alternateBounds" />
          </mxGeometry>
        </mxCell>
        <mxCell id="MLYAWlxQz7Xd01DrlsvW-28" value="" style="shape=tableRow;horizontal=0;startSize=0;swimlaneHead=0;swimlaneBody=0;top=0;left=0;bottom=0;right=0;collapsible=0;dropTarget=0;fillColor=none;points=[[0,0.5],[1,0.5]];portConstraint=eastwest;strokeColor=inherit;fontSize=16;" vertex="1" parent="MLYAWlxQz7Xd01DrlsvW-24">
          <mxGeometry y="60" width="180" height="30" as="geometry" />
        </mxCell>
        <mxCell id="MLYAWlxQz7Xd01DrlsvW-29" value="FK" style="shape=partialRectangle;html=1;whiteSpace=wrap;connectable=0;fillColor=none;top=0;left=0;bottom=0;right=0;overflow=hidden;strokeColor=inherit;fontSize=16;" vertex="1" parent="MLYAWlxQz7Xd01DrlsvW-28">
          <mxGeometry width="40" height="30" as="geometry">
            <mxRectangle width="40" height="30" as="alternateBounds" />
          </mxGeometry>
        </mxCell>
        <mxCell id="MLYAWlxQz7Xd01DrlsvW-30" value="CustomerId" style="shape=partialRectangle;html=1;whiteSpace=wrap;connectable=0;fillColor=none;top=0;left=0;bottom=0;right=0;align=left;spacingLeft=6;overflow=hidden;strokeColor=inherit;fontSize=16;" vertex="1" parent="MLYAWlxQz7Xd01DrlsvW-28">
          <mxGeometry x="40" width="140" height="30" as="geometry">
            <mxRectangle width="140" height="30" as="alternateBounds" />
          </mxGeometry>
        </mxCell>
        <mxCell id="MLYAWlxQz7Xd01DrlsvW-31" value="" style="shape=tableRow;horizontal=0;startSize=0;swimlaneHead=0;swimlaneBody=0;top=0;left=0;bottom=0;right=0;collapsible=0;dropTarget=0;fillColor=none;points=[[0,0.5],[1,0.5]];portConstraint=eastwest;strokeColor=inherit;fontSize=16;" vertex="1" parent="MLYAWlxQz7Xd01DrlsvW-24">
          <mxGeometry y="90" width="180" height="30" as="geometry" />
        </mxCell>
        <mxCell id="MLYAWlxQz7Xd01DrlsvW-32" value="" style="shape=partialRectangle;html=1;whiteSpace=wrap;connectable=0;fillColor=none;top=0;left=0;bottom=0;right=0;overflow=hidden;strokeColor=inherit;fontSize=16;" vertex="1" parent="MLYAWlxQz7Xd01DrlsvW-31">
          <mxGeometry width="40" height="30" as="geometry">
            <mxRectangle width="40" height="30" as="alternateBounds" />
          </mxGeometry>
        </mxCell>
        <mxCell id="MLYAWlxQz7Xd01DrlsvW-33" value="Amount" style="shape=partialRectangle;html=1;whiteSpace=wrap;connectable=0;fillColor=none;top=0;left=0;bottom=0;right=0;align=left;spacingLeft=6;overflow=hidden;strokeColor=inherit;fontSize=16;" vertex="1" parent="MLYAWlxQz7Xd01DrlsvW-31">
          <mxGeometry x="40" width="140" height="30" as="geometry">
            <mxRectangle width="140" height="30" as="alternateBounds" />
          </mxGeometry>
        </mxCell>
        <mxCell id="MLYAWlxQz7Xd01DrlsvW-58" value="" style="shape=tableRow;horizontal=0;startSize=0;swimlaneHead=0;swimlaneBody=0;top=0;left=0;bottom=0;right=0;collapsible=0;dropTarget=0;fillColor=none;points=[[0,0.5],[1,0.5]];portConstraint=eastwest;strokeColor=inherit;fontSize=16;" vertex="1" parent="MLYAWlxQz7Xd01DrlsvW-24">
          <mxGeometry y="120" width="180" height="30" as="geometry" />
        </mxCell>
        <mxCell id="MLYAWlxQz7Xd01DrlsvW-59" value="" style="shape=partialRectangle;html=1;whiteSpace=wrap;connectable=0;fillColor=none;top=0;left=0;bottom=0;right=0;overflow=hidden;strokeColor=inherit;fontSize=16;" vertex="1" parent="MLYAWlxQz7Xd01DrlsvW-58">
          <mxGeometry width="40" height="30" as="geometry">
            <mxRectangle width="40" height="30" as="alternateBounds" />
          </mxGeometry>
        </mxCell>
        <mxCell id="MLYAWlxQz7Xd01DrlsvW-60" value="Period" style="shape=partialRectangle;html=1;whiteSpace=wrap;connectable=0;fillColor=none;top=0;left=0;bottom=0;right=0;align=left;spacingLeft=6;overflow=hidden;strokeColor=inherit;fontSize=16;" vertex="1" parent="MLYAWlxQz7Xd01DrlsvW-58">
          <mxGeometry x="40" width="140" height="30" as="geometry">
            <mxRectangle width="140" height="30" as="alternateBounds" />
          </mxGeometry>
        </mxCell>
        <mxCell id="MLYAWlxQz7Xd01DrlsvW-61" value="" style="shape=tableRow;horizontal=0;startSize=0;swimlaneHead=0;swimlaneBody=0;top=0;left=0;bottom=0;right=0;collapsible=0;dropTarget=0;fillColor=none;points=[[0,0.5],[1,0.5]];portConstraint=eastwest;strokeColor=inherit;fontSize=16;" vertex="1" parent="MLYAWlxQz7Xd01DrlsvW-24">
          <mxGeometry y="150" width="180" height="30" as="geometry" />
        </mxCell>
        <mxCell id="MLYAWlxQz7Xd01DrlsvW-62" value="" style="shape=partialRectangle;html=1;whiteSpace=wrap;connectable=0;fillColor=none;top=0;left=0;bottom=0;right=0;overflow=hidden;strokeColor=inherit;fontSize=16;" vertex="1" parent="MLYAWlxQz7Xd01DrlsvW-61">
          <mxGeometry width="40" height="30" as="geometry">
            <mxRectangle width="40" height="30" as="alternateBounds" />
          </mxGeometry>
        </mxCell>
        <mxCell id="MLYAWlxQz7Xd01DrlsvW-63" value="InterestRate" style="shape=partialRectangle;html=1;whiteSpace=wrap;connectable=0;fillColor=none;top=0;left=0;bottom=0;right=0;align=left;spacingLeft=6;overflow=hidden;strokeColor=inherit;fontSize=16;" vertex="1" parent="MLYAWlxQz7Xd01DrlsvW-61">
          <mxGeometry x="40" width="140" height="30" as="geometry">
            <mxRectangle width="140" height="30" as="alternateBounds" />
          </mxGeometry>
        </mxCell>
        <mxCell id="MLYAWlxQz7Xd01DrlsvW-64" value="" style="shape=tableRow;horizontal=0;startSize=0;swimlaneHead=0;swimlaneBody=0;top=0;left=0;bottom=0;right=0;collapsible=0;dropTarget=0;fillColor=none;points=[[0,0.5],[1,0.5]];portConstraint=eastwest;strokeColor=inherit;fontSize=16;" vertex="1" parent="MLYAWlxQz7Xd01DrlsvW-24">
          <mxGeometry y="180" width="180" height="30" as="geometry" />
        </mxCell>
        <mxCell id="MLYAWlxQz7Xd01DrlsvW-65" value="" style="shape=partialRectangle;html=1;whiteSpace=wrap;connectable=0;fillColor=none;top=0;left=0;bottom=0;right=0;overflow=hidden;strokeColor=inherit;fontSize=16;" vertex="1" parent="MLYAWlxQz7Xd01DrlsvW-64">
          <mxGeometry width="40" height="30" as="geometry">
            <mxRectangle width="40" height="30" as="alternateBounds" />
          </mxGeometry>
        </mxCell>
        <mxCell id="MLYAWlxQz7Xd01DrlsvW-66" value="Closed" style="shape=partialRectangle;html=1;whiteSpace=wrap;connectable=0;fillColor=none;top=0;left=0;bottom=0;right=0;align=left;spacingLeft=6;overflow=hidden;strokeColor=inherit;fontSize=16;" vertex="1" parent="MLYAWlxQz7Xd01DrlsvW-64">
          <mxGeometry x="40" width="140" height="30" as="geometry">
            <mxRectangle width="140" height="30" as="alternateBounds" />
          </mxGeometry>
        </mxCell>
        <mxCell id="MLYAWlxQz7Xd01DrlsvW-67" value="Data Base &quot;Deposite&quot;" style="shape=table;startSize=30;container=1;collapsible=0;childLayout=tableLayout;fixedRows=1;rowLines=0;fontStyle=0;strokeColor=default;fontSize=16;" vertex="1" parent="1">
          <mxGeometry x="-151" y="1334" width="180" height="210" as="geometry" />
        </mxCell>
        <mxCell id="MLYAWlxQz7Xd01DrlsvW-68" value="" style="shape=tableRow;horizontal=0;startSize=0;swimlaneHead=0;swimlaneBody=0;top=0;left=0;bottom=0;right=0;collapsible=0;dropTarget=0;fillColor=none;points=[[0,0.5],[1,0.5]];portConstraint=eastwest;strokeColor=inherit;fontSize=16;" vertex="1" parent="MLYAWlxQz7Xd01DrlsvW-67">
          <mxGeometry y="30" width="180" height="30" as="geometry" />
        </mxCell>
        <mxCell id="MLYAWlxQz7Xd01DrlsvW-69" value="PK" style="shape=partialRectangle;html=1;whiteSpace=wrap;connectable=0;fillColor=none;top=0;left=0;bottom=0;right=0;overflow=hidden;pointerEvents=1;strokeColor=inherit;fontSize=16;" vertex="1" parent="MLYAWlxQz7Xd01DrlsvW-68">
          <mxGeometry width="40" height="30" as="geometry">
            <mxRectangle width="40" height="30" as="alternateBounds" />
          </mxGeometry>
        </mxCell>
        <mxCell id="MLYAWlxQz7Xd01DrlsvW-70" value="ContractNumber" style="shape=partialRectangle;html=1;whiteSpace=wrap;connectable=0;fillColor=none;top=0;left=0;bottom=0;right=0;align=left;spacingLeft=6;overflow=hidden;strokeColor=inherit;fontSize=16;" vertex="1" parent="MLYAWlxQz7Xd01DrlsvW-68">
          <mxGeometry x="40" width="140" height="30" as="geometry">
            <mxRectangle width="140" height="30" as="alternateBounds" />
          </mxGeometry>
        </mxCell>
        <mxCell id="MLYAWlxQz7Xd01DrlsvW-71" value="" style="shape=tableRow;horizontal=0;startSize=0;swimlaneHead=0;swimlaneBody=0;top=0;left=0;bottom=0;right=0;collapsible=0;dropTarget=0;fillColor=none;points=[[0,0.5],[1,0.5]];portConstraint=eastwest;strokeColor=inherit;fontSize=16;" vertex="1" parent="MLYAWlxQz7Xd01DrlsvW-67">
          <mxGeometry y="60" width="180" height="30" as="geometry" />
        </mxCell>
        <mxCell id="MLYAWlxQz7Xd01DrlsvW-72" value="FK" style="shape=partialRectangle;html=1;whiteSpace=wrap;connectable=0;fillColor=none;top=0;left=0;bottom=0;right=0;overflow=hidden;strokeColor=inherit;fontSize=16;" vertex="1" parent="MLYAWlxQz7Xd01DrlsvW-71">
          <mxGeometry width="40" height="30" as="geometry">
            <mxRectangle width="40" height="30" as="alternateBounds" />
          </mxGeometry>
        </mxCell>
        <mxCell id="MLYAWlxQz7Xd01DrlsvW-73" value="CustomerId" style="shape=partialRectangle;html=1;whiteSpace=wrap;connectable=0;fillColor=none;top=0;left=0;bottom=0;right=0;align=left;spacingLeft=6;overflow=hidden;strokeColor=inherit;fontSize=16;" vertex="1" parent="MLYAWlxQz7Xd01DrlsvW-71">
          <mxGeometry x="40" width="140" height="30" as="geometry">
            <mxRectangle width="140" height="30" as="alternateBounds" />
          </mxGeometry>
        </mxCell>
        <mxCell id="MLYAWlxQz7Xd01DrlsvW-74" value="" style="shape=tableRow;horizontal=0;startSize=0;swimlaneHead=0;swimlaneBody=0;top=0;left=0;bottom=0;right=0;collapsible=0;dropTarget=0;fillColor=none;points=[[0,0.5],[1,0.5]];portConstraint=eastwest;strokeColor=inherit;fontSize=16;" vertex="1" parent="MLYAWlxQz7Xd01DrlsvW-67">
          <mxGeometry y="90" width="180" height="30" as="geometry" />
        </mxCell>
        <mxCell id="MLYAWlxQz7Xd01DrlsvW-75" value="" style="shape=partialRectangle;html=1;whiteSpace=wrap;connectable=0;fillColor=none;top=0;left=0;bottom=0;right=0;overflow=hidden;strokeColor=inherit;fontSize=16;" vertex="1" parent="MLYAWlxQz7Xd01DrlsvW-74">
          <mxGeometry width="40" height="30" as="geometry">
            <mxRectangle width="40" height="30" as="alternateBounds" />
          </mxGeometry>
        </mxCell>
        <mxCell id="MLYAWlxQz7Xd01DrlsvW-76" value="Amount" style="shape=partialRectangle;html=1;whiteSpace=wrap;connectable=0;fillColor=none;top=0;left=0;bottom=0;right=0;align=left;spacingLeft=6;overflow=hidden;strokeColor=inherit;fontSize=16;" vertex="1" parent="MLYAWlxQz7Xd01DrlsvW-74">
          <mxGeometry x="40" width="140" height="30" as="geometry">
            <mxRectangle width="140" height="30" as="alternateBounds" />
          </mxGeometry>
        </mxCell>
        <mxCell id="MLYAWlxQz7Xd01DrlsvW-77" value="" style="shape=tableRow;horizontal=0;startSize=0;swimlaneHead=0;swimlaneBody=0;top=0;left=0;bottom=0;right=0;collapsible=0;dropTarget=0;fillColor=none;points=[[0,0.5],[1,0.5]];portConstraint=eastwest;strokeColor=inherit;fontSize=16;" vertex="1" parent="MLYAWlxQz7Xd01DrlsvW-67">
          <mxGeometry y="120" width="180" height="30" as="geometry" />
        </mxCell>
        <mxCell id="MLYAWlxQz7Xd01DrlsvW-78" value="" style="shape=partialRectangle;html=1;whiteSpace=wrap;connectable=0;fillColor=none;top=0;left=0;bottom=0;right=0;overflow=hidden;strokeColor=inherit;fontSize=16;" vertex="1" parent="MLYAWlxQz7Xd01DrlsvW-77">
          <mxGeometry width="40" height="30" as="geometry">
            <mxRectangle width="40" height="30" as="alternateBounds" />
          </mxGeometry>
        </mxCell>
        <mxCell id="MLYAWlxQz7Xd01DrlsvW-79" value="Period" style="shape=partialRectangle;html=1;whiteSpace=wrap;connectable=0;fillColor=none;top=0;left=0;bottom=0;right=0;align=left;spacingLeft=6;overflow=hidden;strokeColor=inherit;fontSize=16;" vertex="1" parent="MLYAWlxQz7Xd01DrlsvW-77">
          <mxGeometry x="40" width="140" height="30" as="geometry">
            <mxRectangle width="140" height="30" as="alternateBounds" />
          </mxGeometry>
        </mxCell>
        <mxCell id="MLYAWlxQz7Xd01DrlsvW-80" value="" style="shape=tableRow;horizontal=0;startSize=0;swimlaneHead=0;swimlaneBody=0;top=0;left=0;bottom=0;right=0;collapsible=0;dropTarget=0;fillColor=none;points=[[0,0.5],[1,0.5]];portConstraint=eastwest;strokeColor=inherit;fontSize=16;" vertex="1" parent="MLYAWlxQz7Xd01DrlsvW-67">
          <mxGeometry y="150" width="180" height="30" as="geometry" />
        </mxCell>
        <mxCell id="MLYAWlxQz7Xd01DrlsvW-81" value="" style="shape=partialRectangle;html=1;whiteSpace=wrap;connectable=0;fillColor=none;top=0;left=0;bottom=0;right=0;overflow=hidden;strokeColor=inherit;fontSize=16;" vertex="1" parent="MLYAWlxQz7Xd01DrlsvW-80">
          <mxGeometry width="40" height="30" as="geometry">
            <mxRectangle width="40" height="30" as="alternateBounds" />
          </mxGeometry>
        </mxCell>
        <mxCell id="MLYAWlxQz7Xd01DrlsvW-82" value="InterestRate" style="shape=partialRectangle;html=1;whiteSpace=wrap;connectable=0;fillColor=none;top=0;left=0;bottom=0;right=0;align=left;spacingLeft=6;overflow=hidden;strokeColor=inherit;fontSize=16;" vertex="1" parent="MLYAWlxQz7Xd01DrlsvW-80">
          <mxGeometry x="40" width="140" height="30" as="geometry">
            <mxRectangle width="140" height="30" as="alternateBounds" />
          </mxGeometry>
        </mxCell>
        <mxCell id="MLYAWlxQz7Xd01DrlsvW-83" value="" style="shape=tableRow;horizontal=0;startSize=0;swimlaneHead=0;swimlaneBody=0;top=0;left=0;bottom=0;right=0;collapsible=0;dropTarget=0;fillColor=none;points=[[0,0.5],[1,0.5]];portConstraint=eastwest;strokeColor=inherit;fontSize=16;" vertex="1" parent="MLYAWlxQz7Xd01DrlsvW-67">
          <mxGeometry y="180" width="180" height="30" as="geometry" />
        </mxCell>
        <mxCell id="MLYAWlxQz7Xd01DrlsvW-84" value="" style="shape=partialRectangle;html=1;whiteSpace=wrap;connectable=0;fillColor=none;top=0;left=0;bottom=0;right=0;overflow=hidden;strokeColor=inherit;fontSize=16;" vertex="1" parent="MLYAWlxQz7Xd01DrlsvW-83">
          <mxGeometry width="40" height="30" as="geometry">
            <mxRectangle width="40" height="30" as="alternateBounds" />
          </mxGeometry>
        </mxCell>
        <mxCell id="MLYAWlxQz7Xd01DrlsvW-85" value="Closed" style="shape=partialRectangle;html=1;whiteSpace=wrap;connectable=0;fillColor=none;top=0;left=0;bottom=0;right=0;align=left;spacingLeft=6;overflow=hidden;strokeColor=inherit;fontSize=16;" vertex="1" parent="MLYAWlxQz7Xd01DrlsvW-83">
          <mxGeometry x="40" width="140" height="30" as="geometry">
            <mxRectangle width="140" height="30" as="alternateBounds" />
          </mxGeometry>
        </mxCell>
        <mxCell id="MLYAWlxQz7Xd01DrlsvW-86" value="Data Base &quot;Customers&quot;" style="shape=table;startSize=30;container=1;collapsible=0;childLayout=tableLayout;fixedRows=1;rowLines=0;fontStyle=0;strokeColor=default;fontSize=16;" vertex="1" parent="1">
          <mxGeometry x="214" y="1129" width="180" height="210" as="geometry" />
        </mxCell>
        <mxCell id="MLYAWlxQz7Xd01DrlsvW-87" value="" style="shape=tableRow;horizontal=0;startSize=0;swimlaneHead=0;swimlaneBody=0;top=0;left=0;bottom=0;right=0;collapsible=0;dropTarget=0;fillColor=none;points=[[0,0.5],[1,0.5]];portConstraint=eastwest;strokeColor=inherit;fontSize=16;" vertex="1" parent="MLYAWlxQz7Xd01DrlsvW-86">
          <mxGeometry y="30" width="180" height="30" as="geometry" />
        </mxCell>
        <mxCell id="MLYAWlxQz7Xd01DrlsvW-88" value="PK" style="shape=partialRectangle;html=1;whiteSpace=wrap;connectable=0;fillColor=none;top=0;left=0;bottom=0;right=0;overflow=hidden;pointerEvents=1;strokeColor=inherit;fontSize=16;" vertex="1" parent="MLYAWlxQz7Xd01DrlsvW-87">
          <mxGeometry width="40" height="30" as="geometry">
            <mxRectangle width="40" height="30" as="alternateBounds" />
          </mxGeometry>
        </mxCell>
        <mxCell id="MLYAWlxQz7Xd01DrlsvW-89" value="" style="shape=partialRectangle;html=1;whiteSpace=wrap;connectable=0;fillColor=none;top=0;left=0;bottom=0;right=0;align=left;spacingLeft=6;overflow=hidden;strokeColor=inherit;fontSize=16;" vertex="1" parent="MLYAWlxQz7Xd01DrlsvW-87">
          <mxGeometry x="40" width="140" height="30" as="geometry">
            <mxRectangle width="140" height="30" as="alternateBounds" />
          </mxGeometry>
        </mxCell>
        <mxCell id="MLYAWlxQz7Xd01DrlsvW-90" value="" style="shape=tableRow;horizontal=0;startSize=0;swimlaneHead=0;swimlaneBody=0;top=0;left=0;bottom=0;right=0;collapsible=0;dropTarget=0;fillColor=none;points=[[0,0.5],[1,0.5]];portConstraint=eastwest;strokeColor=inherit;fontSize=16;" vertex="1" parent="MLYAWlxQz7Xd01DrlsvW-86">
          <mxGeometry y="60" width="180" height="30" as="geometry" />
        </mxCell>
        <mxCell id="MLYAWlxQz7Xd01DrlsvW-91" value="" style="shape=partialRectangle;html=1;whiteSpace=wrap;connectable=0;fillColor=none;top=0;left=0;bottom=0;right=0;overflow=hidden;strokeColor=inherit;fontSize=16;" vertex="1" parent="MLYAWlxQz7Xd01DrlsvW-90">
          <mxGeometry width="40" height="30" as="geometry">
            <mxRectangle width="40" height="30" as="alternateBounds" />
          </mxGeometry>
        </mxCell>
        <mxCell id="MLYAWlxQz7Xd01DrlsvW-92" value="Login" style="shape=partialRectangle;html=1;whiteSpace=wrap;connectable=0;fillColor=none;top=0;left=0;bottom=0;right=0;align=left;spacingLeft=6;overflow=hidden;strokeColor=inherit;fontSize=16;" vertex="1" parent="MLYAWlxQz7Xd01DrlsvW-90">
          <mxGeometry x="40" width="140" height="30" as="geometry">
            <mxRectangle width="140" height="30" as="alternateBounds" />
          </mxGeometry>
        </mxCell>
        <mxCell id="MLYAWlxQz7Xd01DrlsvW-93" value="" style="shape=tableRow;horizontal=0;startSize=0;swimlaneHead=0;swimlaneBody=0;top=0;left=0;bottom=0;right=0;collapsible=0;dropTarget=0;fillColor=none;points=[[0,0.5],[1,0.5]];portConstraint=eastwest;strokeColor=inherit;fontSize=16;" vertex="1" parent="MLYAWlxQz7Xd01DrlsvW-86">
          <mxGeometry y="90" width="180" height="30" as="geometry" />
        </mxCell>
        <mxCell id="MLYAWlxQz7Xd01DrlsvW-94" value="" style="shape=partialRectangle;html=1;whiteSpace=wrap;connectable=0;fillColor=none;top=0;left=0;bottom=0;right=0;overflow=hidden;strokeColor=inherit;fontSize=16;" vertex="1" parent="MLYAWlxQz7Xd01DrlsvW-93">
          <mxGeometry width="40" height="30" as="geometry">
            <mxRectangle width="40" height="30" as="alternateBounds" />
          </mxGeometry>
        </mxCell>
        <mxCell id="MLYAWlxQz7Xd01DrlsvW-95" value="Password" style="shape=partialRectangle;html=1;whiteSpace=wrap;connectable=0;fillColor=none;top=0;left=0;bottom=0;right=0;align=left;spacingLeft=6;overflow=hidden;strokeColor=inherit;fontSize=16;" vertex="1" parent="MLYAWlxQz7Xd01DrlsvW-93">
          <mxGeometry x="40" width="140" height="30" as="geometry">
            <mxRectangle width="140" height="30" as="alternateBounds" />
          </mxGeometry>
        </mxCell>
        <mxCell id="MLYAWlxQz7Xd01DrlsvW-96" value="" style="shape=tableRow;horizontal=0;startSize=0;swimlaneHead=0;swimlaneBody=0;top=0;left=0;bottom=0;right=0;collapsible=0;dropTarget=0;fillColor=none;points=[[0,0.5],[1,0.5]];portConstraint=eastwest;strokeColor=inherit;fontSize=16;" vertex="1" parent="MLYAWlxQz7Xd01DrlsvW-86">
          <mxGeometry y="120" width="180" height="30" as="geometry" />
        </mxCell>
        <mxCell id="MLYAWlxQz7Xd01DrlsvW-97" value="" style="shape=partialRectangle;html=1;whiteSpace=wrap;connectable=0;fillColor=none;top=0;left=0;bottom=0;right=0;overflow=hidden;strokeColor=inherit;fontSize=16;" vertex="1" parent="MLYAWlxQz7Xd01DrlsvW-96">
          <mxGeometry width="40" height="30" as="geometry">
            <mxRectangle width="40" height="30" as="alternateBounds" />
          </mxGeometry>
        </mxCell>
        <mxCell id="MLYAWlxQz7Xd01DrlsvW-98" value="Name" style="shape=partialRectangle;html=1;whiteSpace=wrap;connectable=0;fillColor=none;top=0;left=0;bottom=0;right=0;align=left;spacingLeft=6;overflow=hidden;strokeColor=inherit;fontSize=16;" vertex="1" parent="MLYAWlxQz7Xd01DrlsvW-96">
          <mxGeometry x="40" width="140" height="30" as="geometry">
            <mxRectangle width="140" height="30" as="alternateBounds" />
          </mxGeometry>
        </mxCell>
        <mxCell id="MLYAWlxQz7Xd01DrlsvW-99" value="" style="shape=tableRow;horizontal=0;startSize=0;swimlaneHead=0;swimlaneBody=0;top=0;left=0;bottom=0;right=0;collapsible=0;dropTarget=0;fillColor=none;points=[[0,0.5],[1,0.5]];portConstraint=eastwest;strokeColor=inherit;fontSize=16;" vertex="1" parent="MLYAWlxQz7Xd01DrlsvW-86">
          <mxGeometry y="150" width="180" height="30" as="geometry" />
        </mxCell>
        <mxCell id="MLYAWlxQz7Xd01DrlsvW-100" value="" style="shape=partialRectangle;html=1;whiteSpace=wrap;connectable=0;fillColor=none;top=0;left=0;bottom=0;right=0;overflow=hidden;strokeColor=inherit;fontSize=16;" vertex="1" parent="MLYAWlxQz7Xd01DrlsvW-99">
          <mxGeometry width="40" height="30" as="geometry">
            <mxRectangle width="40" height="30" as="alternateBounds" />
          </mxGeometry>
        </mxCell>
        <mxCell id="MLYAWlxQz7Xd01DrlsvW-101" value="Rating" style="shape=partialRectangle;html=1;whiteSpace=wrap;connectable=0;fillColor=none;top=0;left=0;bottom=0;right=0;align=left;spacingLeft=6;overflow=hidden;strokeColor=inherit;fontSize=16;" vertex="1" parent="MLYAWlxQz7Xd01DrlsvW-99">
          <mxGeometry x="40" width="140" height="30" as="geometry">
            <mxRectangle width="140" height="30" as="alternateBounds" />
          </mxGeometry>
        </mxCell>
        <mxCell id="MLYAWlxQz7Xd01DrlsvW-102" value="" style="shape=tableRow;horizontal=0;startSize=0;swimlaneHead=0;swimlaneBody=0;top=0;left=0;bottom=0;right=0;collapsible=0;dropTarget=0;fillColor=none;points=[[0,0.5],[1,0.5]];portConstraint=eastwest;strokeColor=inherit;fontSize=16;" vertex="1" parent="MLYAWlxQz7Xd01DrlsvW-86">
          <mxGeometry y="180" width="180" height="30" as="geometry" />
        </mxCell>
        <mxCell id="MLYAWlxQz7Xd01DrlsvW-103" value="" style="shape=partialRectangle;html=1;whiteSpace=wrap;connectable=0;fillColor=none;top=0;left=0;bottom=0;right=0;overflow=hidden;strokeColor=inherit;fontSize=16;" vertex="1" parent="MLYAWlxQz7Xd01DrlsvW-102">
          <mxGeometry width="40" height="30" as="geometry">
            <mxRectangle width="40" height="30" as="alternateBounds" />
          </mxGeometry>
        </mxCell>
        <mxCell id="MLYAWlxQz7Xd01DrlsvW-104" value="" style="shape=partialRectangle;html=1;whiteSpace=wrap;connectable=0;fillColor=none;top=0;left=0;bottom=0;right=0;align=left;spacingLeft=6;overflow=hidden;strokeColor=inherit;fontSize=16;" vertex="1" parent="MLYAWlxQz7Xd01DrlsvW-102">
          <mxGeometry x="40" width="140" height="30" as="geometry">
            <mxRectangle width="140" height="30" as="alternateBounds" />
          </mxGeometry>
        </mxCell>
        <mxCell id="MLYAWlxQz7Xd01DrlsvW-105" value="UniqId" style="shape=partialRectangle;html=1;whiteSpace=wrap;connectable=0;fillColor=none;top=0;left=0;bottom=0;right=0;align=left;spacingLeft=6;overflow=hidden;strokeColor=inherit;fontSize=16;" vertex="1" parent="1">
          <mxGeometry x="254" y="1160" width="140" height="30" as="geometry">
            <mxRectangle width="140" height="30" as="alternateBounds" />
          </mxGeometry>
        </mxCell>
        <mxCell id="MLYAWlxQz7Xd01DrlsvW-107" style="edgeStyle=orthogonalEdgeStyle;rounded=0;orthogonalLoop=1;jettySize=auto;html=1;exitX=0;exitY=0.5;exitDx=0;exitDy=0;entryX=1;entryY=0.5;entryDx=0;entryDy=0;fontSize=12;startSize=8;endSize=8;endArrow=ERmandOne;endFill=0;" edge="1" parent="1" source="MLYAWlxQz7Xd01DrlsvW-87" target="MLYAWlxQz7Xd01DrlsvW-28">
          <mxGeometry relative="1" as="geometry" />
        </mxCell>
        <mxCell id="MLYAWlxQz7Xd01DrlsvW-109" style="edgeStyle=orthogonalEdgeStyle;rounded=0;orthogonalLoop=1;jettySize=auto;html=1;exitX=0;exitY=0.5;exitDx=0;exitDy=0;entryX=1;entryY=0.5;entryDx=0;entryDy=0;fontSize=12;startSize=8;endSize=8;endArrow=ERmandOne;endFill=0;" edge="1" parent="1">
          <mxGeometry relative="1" as="geometry">
            <mxPoint x="215" y="1174" as="sourcePoint" />
            <mxPoint x="30" y="1409" as="targetPoint" />
            <Array as="points">
              <mxPoint x="124" y="1174" />
              <mxPoint x="124" y="1409" />
            </Array>
          </mxGeometry>
        </mxCell>
      </root>
    </mxGraphModel>
  </diagram>
  <diagram id="R5GtFuTawvBj7bojDgkm" name="Диаграмма последовательности">
    <mxGraphModel dx="2530" dy="2096" grid="0" gridSize="10" guides="1" tooltips="1" connect="1" arrows="1" fold="1" page="0" pageScale="1" pageWidth="827" pageHeight="1169" math="0" shadow="0">
      <root>
        <mxCell id="0" />
        <mxCell id="1" parent="0" />
        <mxCell id="bqPE5uISUNwUIq3V5RTR-11" style="edgeStyle=none;curved=1;rounded=0;orthogonalLoop=1;jettySize=auto;html=1;exitX=0.5;exitY=1;exitDx=0;exitDy=0;fontSize=12;startSize=8;endSize=8;" edge="1" parent="1" source="bqPE5uISUNwUIq3V5RTR-3">
          <mxGeometry relative="1" as="geometry">
            <mxPoint x="-1123" y="84" as="targetPoint" />
            <mxPoint x="-1123" y="-766" as="sourcePoint" />
          </mxGeometry>
        </mxCell>
        <mxCell id="bqPE5uISUNwUIq3V5RTR-3" value="&lt;span style=&quot;font-size: 22px;&quot;&gt;Customer&lt;/span&gt;" style="rounded=0;whiteSpace=wrap;html=1;" vertex="1" parent="1">
          <mxGeometry x="-1192" y="-387" width="138" height="60" as="geometry" />
        </mxCell>
        <mxCell id="bqPE5uISUNwUIq3V5RTR-13" style="edgeStyle=none;curved=1;rounded=0;orthogonalLoop=1;jettySize=auto;html=1;exitX=0.5;exitY=1;exitDx=0;exitDy=0;entryX=0.5;entryY=0;entryDx=0;entryDy=0;fontSize=12;startSize=8;endSize=8;endArrow=none;endFill=0;" edge="1" parent="1" source="bqPE5uISUNwUIq3V5RTR-4">
          <mxGeometry relative="1" as="geometry">
            <mxPoint x="-669" y="-279" as="targetPoint" />
          </mxGeometry>
        </mxCell>
        <mxCell id="bqPE5uISUNwUIq3V5RTR-4" value="&lt;span style=&quot;font-size: 22px;&quot;&gt;System&lt;/span&gt;" style="rounded=0;whiteSpace=wrap;html=1;" vertex="1" parent="1">
          <mxGeometry x="-738" y="-387" width="138" height="60" as="geometry" />
        </mxCell>
        <mxCell id="bqPE5uISUNwUIq3V5RTR-17" style="edgeStyle=none;curved=1;rounded=0;orthogonalLoop=1;jettySize=auto;html=1;exitX=0.5;exitY=1;exitDx=0;exitDy=0;entryX=0.5;entryY=0;entryDx=0;entryDy=0;fontSize=12;startSize=8;endSize=8;endArrow=none;endFill=0;" edge="1" parent="1" target="bqPE5uISUNwUIq3V5RTR-18">
          <mxGeometry relative="1" as="geometry">
            <mxPoint x="-669" y="-326" as="sourcePoint" />
          </mxGeometry>
        </mxCell>
        <mxCell id="bqPE5uISUNwUIq3V5RTR-33" style="edgeStyle=none;curved=1;rounded=0;orthogonalLoop=1;jettySize=auto;html=1;exitX=0;exitY=0.75;exitDx=0;exitDy=0;fontSize=12;startSize=8;endSize=8;dashed=1;" edge="1" parent="1" source="bqPE5uISUNwUIq3V5RTR-18">
          <mxGeometry relative="1" as="geometry">
            <mxPoint x="-1122.6393220320992" y="-232.86956521739125" as="targetPoint" />
          </mxGeometry>
        </mxCell>
        <mxCell id="bqPE5uISUNwUIq3V5RTR-18" value="" style="rounded=0;whiteSpace=wrap;html=1;" vertex="1" parent="1">
          <mxGeometry x="-682" y="-278" width="26" height="60" as="geometry" />
        </mxCell>
        <mxCell id="bqPE5uISUNwUIq3V5RTR-21" style="edgeStyle=none;curved=1;rounded=0;orthogonalLoop=1;jettySize=auto;html=1;exitX=0.5;exitY=1;exitDx=0;exitDy=0;entryX=0.5;entryY=0;entryDx=0;entryDy=0;fontSize=12;startSize=8;endSize=8;endArrow=none;endFill=0;" edge="1" parent="1" target="bqPE5uISUNwUIq3V5RTR-22">
          <mxGeometry relative="1" as="geometry">
            <mxPoint x="-669" y="-218" as="sourcePoint" />
          </mxGeometry>
        </mxCell>
        <mxCell id="bqPE5uISUNwUIq3V5RTR-42" style="edgeStyle=none;curved=1;rounded=0;orthogonalLoop=1;jettySize=auto;html=1;exitX=0;exitY=0.75;exitDx=0;exitDy=0;fontSize=12;startSize=8;endSize=8;dashed=1;" edge="1" parent="1" source="bqPE5uISUNwUIq3V5RTR-22">
          <mxGeometry relative="1" as="geometry">
            <mxPoint x="-1124.2203979492188" y="-125.0434782608695" as="targetPoint" />
          </mxGeometry>
        </mxCell>
        <mxCell id="lhRFm5VbXeaRHV50Ai2d-137" style="edgeStyle=none;curved=1;rounded=0;orthogonalLoop=1;jettySize=auto;html=1;exitX=1;exitY=0.25;exitDx=0;exitDy=0;entryX=0;entryY=0.25;entryDx=0;entryDy=0;fontSize=12;startSize=8;endSize=8;" edge="1" parent="1" source="bqPE5uISUNwUIq3V5RTR-22" target="lhRFm5VbXeaRHV50Ai2d-135">
          <mxGeometry relative="1" as="geometry" />
        </mxCell>
        <mxCell id="bqPE5uISUNwUIq3V5RTR-22" value="" style="rounded=0;whiteSpace=wrap;html=1;" vertex="1" parent="1">
          <mxGeometry x="-682" y="-170" width="26" height="60" as="geometry" />
        </mxCell>
        <mxCell id="bqPE5uISUNwUIq3V5RTR-31" value="" style="endArrow=classic;html=1;rounded=0;fontSize=12;startSize=8;endSize=8;curved=1;entryX=0;entryY=0.25;entryDx=0;entryDy=0;" edge="1" parent="1" target="bqPE5uISUNwUIq3V5RTR-18">
          <mxGeometry width="50" height="50" relative="1" as="geometry">
            <mxPoint x="-1122" y="-262" as="sourcePoint" />
            <mxPoint x="-849" y="-265" as="targetPoint" />
          </mxGeometry>
        </mxCell>
        <mxCell id="bqPE5uISUNwUIq3V5RTR-32" value="&lt;font style=&quot;font-size: 12px;&quot;&gt;LogIn()&lt;/font&gt;" style="text;html=1;align=center;verticalAlign=middle;whiteSpace=wrap;rounded=0;fontSize=16;" vertex="1" parent="1">
          <mxGeometry x="-921" y="-290" width="60" height="30" as="geometry" />
        </mxCell>
        <mxCell id="bqPE5uISUNwUIq3V5RTR-34" value="Confirm or Deny" style="text;strokeColor=none;fillColor=none;align=left;verticalAlign=middle;spacingLeft=4;spacingRight=4;overflow=hidden;points=[[0,0.5],[1,0.5]];portConstraint=eastwest;rotatable=0;whiteSpace=wrap;html=1;" vertex="1" parent="1">
          <mxGeometry x="-939" y="-257" width="105" height="30" as="geometry" />
        </mxCell>
        <mxCell id="bqPE5uISUNwUIq3V5RTR-38" value="" style="endArrow=classic;html=1;rounded=0;fontSize=12;startSize=8;endSize=8;curved=1;entryX=0;entryY=0.25;entryDx=0;entryDy=0;" edge="1" parent="1" target="bqPE5uISUNwUIq3V5RTR-22">
          <mxGeometry width="50" height="50" relative="1" as="geometry">
            <mxPoint x="-1123" y="-154" as="sourcePoint" />
            <mxPoint x="-682" y="-163" as="targetPoint" />
          </mxGeometry>
        </mxCell>
        <mxCell id="bqPE5uISUNwUIq3V5RTR-39" value="&lt;span style=&quot;font-size: 12px;&quot;&gt;RequestConditionsForDeposite()&lt;/span&gt;" style="text;html=1;align=center;verticalAlign=middle;whiteSpace=wrap;rounded=0;fontSize=16;" vertex="1" parent="1">
          <mxGeometry x="-980" y="-186" width="187" height="30" as="geometry" />
        </mxCell>
        <mxCell id="bqPE5uISUNwUIq3V5RTR-43" value="&lt;span style=&quot;font-size: 12px;&quot;&gt;PullRequest()&lt;/span&gt;" style="text;html=1;align=center;verticalAlign=middle;whiteSpace=wrap;rounded=0;fontSize=16;" vertex="1" parent="1">
          <mxGeometry x="-980" y="-152" width="187" height="30" as="geometry" />
        </mxCell>
        <mxCell id="bqPE5uISUNwUIq3V5RTR-45" style="edgeStyle=none;curved=1;rounded=0;orthogonalLoop=1;jettySize=auto;html=1;exitX=0.5;exitY=1;exitDx=0;exitDy=0;entryX=0.5;entryY=0;entryDx=0;entryDy=0;fontSize=12;startSize=8;endSize=8;endArrow=none;endFill=0;" edge="1" parent="1" target="bqPE5uISUNwUIq3V5RTR-46">
          <mxGeometry relative="1" as="geometry">
            <mxPoint x="-669" y="-110" as="sourcePoint" />
          </mxGeometry>
        </mxCell>
        <mxCell id="bqPE5uISUNwUIq3V5RTR-46" value="" style="rounded=0;whiteSpace=wrap;html=1;" vertex="1" parent="1">
          <mxGeometry x="-682" y="-61" width="26" height="60" as="geometry" />
        </mxCell>
        <mxCell id="bqPE5uISUNwUIq3V5RTR-50" value="" style="endArrow=classic;html=1;rounded=0;fontSize=12;startSize=8;endSize=8;curved=1;entryX=0;entryY=0.25;entryDx=0;entryDy=0;" edge="1" parent="1" target="bqPE5uISUNwUIq3V5RTR-46">
          <mxGeometry width="50" height="50" relative="1" as="geometry">
            <mxPoint x="-1123" y="-43" as="sourcePoint" />
            <mxPoint x="-777" y="40" as="targetPoint" />
          </mxGeometry>
        </mxCell>
        <mxCell id="bqPE5uISUNwUIq3V5RTR-51" value="&lt;span style=&quot;font-size: 12px;&quot;&gt;AgreeOrDisagree()&lt;/span&gt;" style="text;html=1;align=center;verticalAlign=middle;whiteSpace=wrap;rounded=0;fontSize=16;" vertex="1" parent="1">
          <mxGeometry x="-974" y="-74" width="187" height="30" as="geometry" />
        </mxCell>
        <mxCell id="bqPE5uISUNwUIq3V5RTR-63" style="edgeStyle=none;curved=1;rounded=0;orthogonalLoop=1;jettySize=auto;html=1;exitX=0.5;exitY=1;exitDx=0;exitDy=0;entryX=0.5;entryY=0;entryDx=0;entryDy=0;fontSize=12;startSize=8;endSize=8;endArrow=none;endFill=0;" edge="1" parent="1" target="bqPE5uISUNwUIq3V5RTR-64">
          <mxGeometry relative="1" as="geometry">
            <mxPoint x="-669" y="-1" as="sourcePoint" />
          </mxGeometry>
        </mxCell>
        <mxCell id="bqPE5uISUNwUIq3V5RTR-64" value="" style="rounded=0;whiteSpace=wrap;html=1;" vertex="1" parent="1">
          <mxGeometry x="-682" y="38" width="26" height="60" as="geometry" />
        </mxCell>
        <mxCell id="bqPE5uISUNwUIq3V5RTR-65" value="" style="endArrow=classic;html=1;rounded=0;fontSize=12;startSize=8;endSize=8;curved=1;entryX=0.034;entryY=0.378;entryDx=0;entryDy=0;entryPerimeter=0;" edge="1" parent="1" target="bqPE5uISUNwUIq3V5RTR-64">
          <mxGeometry width="50" height="50" relative="1" as="geometry">
            <mxPoint x="-1122" y="61" as="sourcePoint" />
            <mxPoint x="-682" y="57" as="targetPoint" />
          </mxGeometry>
        </mxCell>
        <mxCell id="bqPE5uISUNwUIq3V5RTR-67" value="&lt;span style=&quot;font-size: 12px;&quot;&gt;DepositingFunds()&lt;/span&gt;" style="text;html=1;align=center;verticalAlign=middle;whiteSpace=wrap;rounded=0;fontSize=16;" vertex="1" parent="1">
          <mxGeometry x="-970" y="26" width="187" height="30" as="geometry" />
        </mxCell>
        <mxCell id="lhRFm5VbXeaRHV50Ai2d-2" style="edgeStyle=none;curved=1;rounded=0;orthogonalLoop=1;jettySize=auto;html=1;exitX=0.5;exitY=1;exitDx=0;exitDy=0;entryX=0.5;entryY=0;entryDx=0;entryDy=0;fontSize=12;startSize=8;endSize=8;endArrow=none;endFill=0;" edge="1" parent="1" target="lhRFm5VbXeaRHV50Ai2d-3">
          <mxGeometry relative="1" as="geometry">
            <mxPoint x="2024" y="-329" as="sourcePoint" />
          </mxGeometry>
        </mxCell>
        <mxCell id="lhRFm5VbXeaRHV50Ai2d-8" style="edgeStyle=none;curved=1;rounded=0;orthogonalLoop=1;jettySize=auto;html=1;exitX=0;exitY=0.75;exitDx=0;exitDy=0;fontSize=12;startSize=8;endSize=8;" edge="1" parent="1" source="lhRFm5VbXeaRHV50Ai2d-3">
          <mxGeometry relative="1" as="geometry">
            <mxPoint x="1569" y="-243" as="targetPoint" />
          </mxGeometry>
        </mxCell>
        <mxCell id="lhRFm5VbXeaRHV50Ai2d-3" value="" style="rounded=0;whiteSpace=wrap;html=1;" vertex="1" parent="1">
          <mxGeometry x="2011" y="-290" width="26" height="60" as="geometry" />
        </mxCell>
        <mxCell id="lhRFm5VbXeaRHV50Ai2d-4" value="" style="endArrow=classic;html=1;rounded=0;fontSize=12;startSize=8;endSize=8;curved=1;entryX=0;entryY=0.25;entryDx=0;entryDy=0;" edge="1" parent="1" target="lhRFm5VbXeaRHV50Ai2d-3">
          <mxGeometry width="50" height="50" relative="1" as="geometry">
            <mxPoint x="1570" y="-273" as="sourcePoint" />
            <mxPoint x="1880" y="-268" as="targetPoint" />
          </mxGeometry>
        </mxCell>
        <mxCell id="lhRFm5VbXeaRHV50Ai2d-7" value="&lt;span style=&quot;font-size: 12px;&quot;&gt;WithdrawalReques()&lt;/span&gt;" style="text;html=1;align=center;verticalAlign=middle;whiteSpace=wrap;rounded=0;fontSize=16;" vertex="1" parent="1">
          <mxGeometry x="1680" y="-304" width="265" height="30" as="geometry" />
        </mxCell>
        <mxCell id="lhRFm5VbXeaRHV50Ai2d-9" value="&lt;span style=&quot;font-size: 12px;&quot;&gt;FundTransfer()&lt;/span&gt;" style="text;html=1;align=center;verticalAlign=middle;whiteSpace=wrap;rounded=0;fontSize=16;" vertex="1" parent="1">
          <mxGeometry x="1684" y="-269" width="265" height="30" as="geometry" />
        </mxCell>
        <mxCell id="lhRFm5VbXeaRHV50Ai2d-28" style="edgeStyle=none;curved=1;rounded=0;orthogonalLoop=1;jettySize=auto;html=1;exitX=0.5;exitY=1;exitDx=0;exitDy=0;entryX=0.5;entryY=0;entryDx=0;entryDy=0;fontSize=12;startSize=8;endSize=8;endArrow=none;endFill=0;" edge="1" parent="1" target="lhRFm5VbXeaRHV50Ai2d-29">
          <mxGeometry relative="1" as="geometry">
            <mxPoint x="2024" y="-230" as="sourcePoint" />
          </mxGeometry>
        </mxCell>
        <mxCell id="lhRFm5VbXeaRHV50Ai2d-157" style="edgeStyle=none;curved=1;rounded=0;orthogonalLoop=1;jettySize=auto;html=1;exitX=1;exitY=0.25;exitDx=0;exitDy=0;entryX=0;entryY=0.25;entryDx=0;entryDy=0;fontSize=12;startSize=8;endSize=8;" edge="1" parent="1" source="lhRFm5VbXeaRHV50Ai2d-29" target="lhRFm5VbXeaRHV50Ai2d-155">
          <mxGeometry relative="1" as="geometry" />
        </mxCell>
        <mxCell id="lhRFm5VbXeaRHV50Ai2d-29" value="" style="rounded=0;whiteSpace=wrap;html=1;" vertex="1" parent="1">
          <mxGeometry x="2011" y="-191" width="26" height="60" as="geometry" />
        </mxCell>
        <mxCell id="lhRFm5VbXeaRHV50Ai2d-31" value="" style="endArrow=classic;html=1;rounded=0;fontSize=12;startSize=8;endSize=8;curved=1;" edge="1" parent="1">
          <mxGeometry width="50" height="50" relative="1" as="geometry">
            <mxPoint x="1571" y="-172" as="sourcePoint" />
            <mxPoint x="2008" y="-172" as="targetPoint" />
          </mxGeometry>
        </mxCell>
        <mxCell id="lhRFm5VbXeaRHV50Ai2d-34" value="&lt;span style=&quot;color: rgb(0, 0, 0); font-family: Helvetica; font-size: 12px; font-style: normal; font-variant-ligatures: normal; font-variant-caps: normal; font-weight: 400; letter-spacing: normal; orphans: 2; text-align: center; text-indent: 0px; text-transform: none; widows: 2; word-spacing: 0px; -webkit-text-stroke-width: 0px; white-space: normal; background-color: rgb(255, 255, 255); text-decoration-thickness: initial; text-decoration-style: initial; text-decoration-color: initial; display: inline !important; float: none;&quot;&gt;RequestConditionsForCredit()&lt;/span&gt;" style="text;whiteSpace=wrap;html=1;" vertex="1" parent="1">
          <mxGeometry x="1722.9995451863608" y="-195.00404485066724" width="203" height="36" as="geometry" />
        </mxCell>
        <mxCell id="lhRFm5VbXeaRHV50Ai2d-63" style="edgeStyle=none;curved=1;rounded=0;orthogonalLoop=1;jettySize=auto;html=1;exitX=0.5;exitY=1;exitDx=0;exitDy=0;fontSize=12;startSize=8;endSize=8;endArrow=none;endFill=0;" edge="1" parent="1" source="lhRFm5VbXeaRHV50Ai2d-55">
          <mxGeometry relative="1" as="geometry">
            <mxPoint x="-454" y="-625" as="targetPoint" />
          </mxGeometry>
        </mxCell>
        <mxCell id="lhRFm5VbXeaRHV50Ai2d-55" value="&lt;span style=&quot;font-size: 22px;&quot;&gt;Customer&lt;/span&gt;" style="rounded=0;whiteSpace=wrap;html=1;" vertex="1" parent="1">
          <mxGeometry x="-524" y="-778" width="138" height="60" as="geometry" />
        </mxCell>
        <mxCell id="lhRFm5VbXeaRHV50Ai2d-56" style="edgeStyle=none;curved=1;rounded=0;orthogonalLoop=1;jettySize=auto;html=1;exitX=0.5;exitY=1;exitDx=0;exitDy=0;entryX=0.5;entryY=0;entryDx=0;entryDy=0;fontSize=12;startSize=8;endSize=8;endArrow=none;endFill=0;" edge="1" parent="1" source="lhRFm5VbXeaRHV50Ai2d-57" target="lhRFm5VbXeaRHV50Ai2d-59">
          <mxGeometry relative="1" as="geometry" />
        </mxCell>
        <mxCell id="lhRFm5VbXeaRHV50Ai2d-57" value="&lt;span style=&quot;font-size: 22px;&quot;&gt;System&lt;/span&gt;" style="rounded=0;whiteSpace=wrap;html=1;" vertex="1" parent="1">
          <mxGeometry x="-70" y="-778" width="138" height="60" as="geometry" />
        </mxCell>
        <mxCell id="lhRFm5VbXeaRHV50Ai2d-58" style="edgeStyle=none;curved=1;rounded=0;orthogonalLoop=1;jettySize=auto;html=1;exitX=0;exitY=0.75;exitDx=0;exitDy=0;fontSize=12;startSize=8;endSize=8;dashed=1;" edge="1" parent="1" source="lhRFm5VbXeaRHV50Ai2d-59">
          <mxGeometry relative="1" as="geometry">
            <mxPoint x="-453.4535681683084" y="-624.695652173913" as="targetPoint" />
          </mxGeometry>
        </mxCell>
        <mxCell id="lhRFm5VbXeaRHV50Ai2d-59" value="" style="rounded=0;whiteSpace=wrap;html=1;" vertex="1" parent="1">
          <mxGeometry x="-14" y="-670" width="26" height="60" as="geometry" />
        </mxCell>
        <mxCell id="lhRFm5VbXeaRHV50Ai2d-60" value="" style="endArrow=classic;html=1;rounded=0;fontSize=12;startSize=8;endSize=8;curved=1;entryX=0;entryY=0.25;entryDx=0;entryDy=0;" edge="1" parent="1" target="lhRFm5VbXeaRHV50Ai2d-59">
          <mxGeometry width="50" height="50" relative="1" as="geometry">
            <mxPoint x="-456" y="-655" as="sourcePoint" />
            <mxPoint x="-181" y="-549" as="targetPoint" />
          </mxGeometry>
        </mxCell>
        <mxCell id="lhRFm5VbXeaRHV50Ai2d-61" value="Register()" style="text;strokeColor=none;fillColor=none;align=left;verticalAlign=middle;spacingLeft=4;spacingRight=4;overflow=hidden;points=[[0,0.5],[1,0.5]];portConstraint=eastwest;rotatable=0;whiteSpace=wrap;html=1;" vertex="1" parent="1">
          <mxGeometry x="-263" y="-679" width="80" height="30" as="geometry" />
        </mxCell>
        <mxCell id="lhRFm5VbXeaRHV50Ai2d-62" value="Confirm or Deny" style="text;strokeColor=none;fillColor=none;align=left;verticalAlign=middle;spacingLeft=4;spacingRight=4;overflow=hidden;points=[[0,0.5],[1,0.5]];portConstraint=eastwest;rotatable=0;whiteSpace=wrap;html=1;" vertex="1" parent="1">
          <mxGeometry x="-275.5" y="-649" width="105" height="30" as="geometry" />
        </mxCell>
        <mxCell id="lhRFm5VbXeaRHV50Ai2d-66" value="&lt;span style=&quot;font-size: 56px;&quot;&gt;Deposites&lt;/span&gt;" style="text;html=1;align=center;verticalAlign=middle;resizable=0;points=[];autosize=1;strokeColor=none;fillColor=none;fontSize=16;" vertex="1" parent="1">
          <mxGeometry x="-191" y="-501" width="267" height="79" as="geometry" />
        </mxCell>
        <mxCell id="lhRFm5VbXeaRHV50Ai2d-67" value="&lt;font style=&quot;font-size: 60px;&quot;&gt;Registration&lt;/font&gt;" style="text;html=1;align=center;verticalAlign=middle;resizable=0;points=[];autosize=1;strokeColor=none;fillColor=none;fontSize=16;" vertex="1" parent="1">
          <mxGeometry x="-419" y="-881" width="338" height="84" as="geometry" />
        </mxCell>
        <mxCell id="lhRFm5VbXeaRHV50Ai2d-70" style="edgeStyle=none;curved=1;rounded=0;orthogonalLoop=1;jettySize=auto;html=1;exitX=0.5;exitY=1;exitDx=0;exitDy=0;fontSize=12;startSize=8;endSize=8;" edge="1" parent="1" source="lhRFm5VbXeaRHV50Ai2d-68">
          <mxGeometry relative="1" as="geometry">
            <mxPoint x="1570" y="156" as="targetPoint" />
          </mxGeometry>
        </mxCell>
        <mxCell id="lhRFm5VbXeaRHV50Ai2d-68" value="&lt;span style=&quot;font-size: 22px;&quot;&gt;Customer&lt;/span&gt;" style="rounded=0;whiteSpace=wrap;html=1;" vertex="1" parent="1">
          <mxGeometry x="1501" y="-387" width="138" height="60" as="geometry" />
        </mxCell>
        <mxCell id="lhRFm5VbXeaRHV50Ai2d-69" value="&lt;span style=&quot;font-size: 22px;&quot;&gt;System&lt;/span&gt;" style="rounded=0;whiteSpace=wrap;html=1;" vertex="1" parent="1">
          <mxGeometry x="1955" y="-387" width="138" height="60" as="geometry" />
        </mxCell>
        <mxCell id="lhRFm5VbXeaRHV50Ai2d-71" value="&lt;span style=&quot;font-size: 56px;&quot;&gt;Credits&lt;/span&gt;" style="text;html=1;align=center;verticalAlign=middle;resizable=0;points=[];autosize=1;strokeColor=none;fillColor=none;fontSize=16;" vertex="1" parent="1">
          <mxGeometry x="1704.5" y="-501" width="195" height="79" as="geometry" />
        </mxCell>
        <mxCell id="lhRFm5VbXeaRHV50Ai2d-74" style="edgeStyle=none;curved=1;rounded=0;orthogonalLoop=1;jettySize=auto;html=1;exitX=0.5;exitY=1;exitDx=0;exitDy=0;fontSize=12;startSize=8;endSize=8;" edge="1" parent="1" source="lhRFm5VbXeaRHV50Ai2d-75">
          <mxGeometry relative="1" as="geometry">
            <mxPoint x="256" y="-38" as="targetPoint" />
            <mxPoint x="256.0000000000001" y="-766" as="sourcePoint" />
          </mxGeometry>
        </mxCell>
        <mxCell id="lhRFm5VbXeaRHV50Ai2d-75" value="&lt;span style=&quot;font-size: 22px;&quot;&gt;Customer&lt;/span&gt;" style="rounded=0;whiteSpace=wrap;html=1;" vertex="1" parent="1">
          <mxGeometry x="187" y="-387" width="138" height="60" as="geometry" />
        </mxCell>
        <mxCell id="lhRFm5VbXeaRHV50Ai2d-76" style="edgeStyle=none;curved=1;rounded=0;orthogonalLoop=1;jettySize=auto;html=1;exitX=0.5;exitY=1;exitDx=0;exitDy=0;entryX=0.5;entryY=0;entryDx=0;entryDy=0;fontSize=12;startSize=8;endSize=8;endArrow=none;endFill=0;" edge="1" parent="1" source="lhRFm5VbXeaRHV50Ai2d-77">
          <mxGeometry relative="1" as="geometry">
            <mxPoint x="710" y="-279" as="targetPoint" />
          </mxGeometry>
        </mxCell>
        <mxCell id="lhRFm5VbXeaRHV50Ai2d-77" value="&lt;span style=&quot;font-size: 22px;&quot;&gt;System&lt;/span&gt;" style="rounded=0;whiteSpace=wrap;html=1;" vertex="1" parent="1">
          <mxGeometry x="641" y="-387" width="138" height="60" as="geometry" />
        </mxCell>
        <mxCell id="lhRFm5VbXeaRHV50Ai2d-78" style="edgeStyle=none;curved=1;rounded=0;orthogonalLoop=1;jettySize=auto;html=1;exitX=0.5;exitY=1;exitDx=0;exitDy=0;entryX=0.5;entryY=0;entryDx=0;entryDy=0;fontSize=12;startSize=8;endSize=8;endArrow=none;endFill=0;" edge="1" parent="1" target="lhRFm5VbXeaRHV50Ai2d-80">
          <mxGeometry relative="1" as="geometry">
            <mxPoint x="710" y="-326" as="sourcePoint" />
          </mxGeometry>
        </mxCell>
        <mxCell id="lhRFm5VbXeaRHV50Ai2d-79" style="edgeStyle=none;curved=1;rounded=0;orthogonalLoop=1;jettySize=auto;html=1;exitX=0;exitY=0.75;exitDx=0;exitDy=0;fontSize=12;startSize=8;endSize=8;dashed=1;" edge="1" parent="1" source="lhRFm5VbXeaRHV50Ai2d-80">
          <mxGeometry relative="1" as="geometry">
            <mxPoint x="256.36067796790087" y="-232.86956521739125" as="targetPoint" />
          </mxGeometry>
        </mxCell>
        <mxCell id="lhRFm5VbXeaRHV50Ai2d-80" value="" style="rounded=0;whiteSpace=wrap;html=1;" vertex="1" parent="1">
          <mxGeometry x="697" y="-278" width="26" height="60" as="geometry" />
        </mxCell>
        <mxCell id="lhRFm5VbXeaRHV50Ai2d-81" style="edgeStyle=none;curved=1;rounded=0;orthogonalLoop=1;jettySize=auto;html=1;exitX=0.5;exitY=1;exitDx=0;exitDy=0;entryX=0.5;entryY=0;entryDx=0;entryDy=0;fontSize=12;startSize=8;endSize=8;endArrow=none;endFill=0;" edge="1" parent="1" target="lhRFm5VbXeaRHV50Ai2d-83">
          <mxGeometry relative="1" as="geometry">
            <mxPoint x="710" y="-218" as="sourcePoint" />
          </mxGeometry>
        </mxCell>
        <mxCell id="lhRFm5VbXeaRHV50Ai2d-82" style="edgeStyle=none;curved=1;rounded=0;orthogonalLoop=1;jettySize=auto;html=1;exitX=0;exitY=0.75;exitDx=0;exitDy=0;fontSize=12;startSize=8;endSize=8;dashed=1;" edge="1" parent="1" source="lhRFm5VbXeaRHV50Ai2d-83">
          <mxGeometry relative="1" as="geometry">
            <mxPoint x="254.77960205078136" y="-125.0434782608695" as="targetPoint" />
          </mxGeometry>
        </mxCell>
        <mxCell id="lhRFm5VbXeaRHV50Ai2d-150" style="edgeStyle=none;curved=1;rounded=0;orthogonalLoop=1;jettySize=auto;html=1;exitX=1;exitY=0.25;exitDx=0;exitDy=0;entryX=0;entryY=0.25;entryDx=0;entryDy=0;fontSize=12;startSize=8;endSize=8;" edge="1" parent="1" source="lhRFm5VbXeaRHV50Ai2d-83" target="lhRFm5VbXeaRHV50Ai2d-145">
          <mxGeometry relative="1" as="geometry" />
        </mxCell>
        <mxCell id="lhRFm5VbXeaRHV50Ai2d-83" value="" style="rounded=0;whiteSpace=wrap;html=1;" vertex="1" parent="1">
          <mxGeometry x="697" y="-170" width="26" height="60" as="geometry" />
        </mxCell>
        <mxCell id="lhRFm5VbXeaRHV50Ai2d-84" value="" style="endArrow=classic;html=1;rounded=0;fontSize=12;startSize=8;endSize=8;curved=1;entryX=0;entryY=0.25;entryDx=0;entryDy=0;" edge="1" parent="1" target="lhRFm5VbXeaRHV50Ai2d-80">
          <mxGeometry width="50" height="50" relative="1" as="geometry">
            <mxPoint x="257" y="-262" as="sourcePoint" />
            <mxPoint x="530" y="-265" as="targetPoint" />
          </mxGeometry>
        </mxCell>
        <mxCell id="lhRFm5VbXeaRHV50Ai2d-85" value="&lt;font style=&quot;font-size: 12px;&quot;&gt;LogIn()&lt;/font&gt;" style="text;html=1;align=center;verticalAlign=middle;whiteSpace=wrap;rounded=0;fontSize=16;" vertex="1" parent="1">
          <mxGeometry x="458" y="-290" width="60" height="30" as="geometry" />
        </mxCell>
        <mxCell id="lhRFm5VbXeaRHV50Ai2d-86" value="Confirm or Deny" style="text;strokeColor=none;fillColor=none;align=left;verticalAlign=middle;spacingLeft=4;spacingRight=4;overflow=hidden;points=[[0,0.5],[1,0.5]];portConstraint=eastwest;rotatable=0;whiteSpace=wrap;html=1;" vertex="1" parent="1">
          <mxGeometry x="440" y="-257" width="105" height="30" as="geometry" />
        </mxCell>
        <mxCell id="lhRFm5VbXeaRHV50Ai2d-87" value="" style="endArrow=classic;html=1;rounded=0;fontSize=12;startSize=8;endSize=8;curved=1;entryX=0;entryY=0.25;entryDx=0;entryDy=0;" edge="1" parent="1" target="lhRFm5VbXeaRHV50Ai2d-83">
          <mxGeometry width="50" height="50" relative="1" as="geometry">
            <mxPoint x="256" y="-154" as="sourcePoint" />
            <mxPoint x="697" y="-163" as="targetPoint" />
          </mxGeometry>
        </mxCell>
        <mxCell id="lhRFm5VbXeaRHV50Ai2d-88" value="&lt;span style=&quot;font-size: 12px;&quot;&gt;RequestConditionsForDeposite()&lt;/span&gt;" style="text;html=1;align=center;verticalAlign=middle;whiteSpace=wrap;rounded=0;fontSize=16;" vertex="1" parent="1">
          <mxGeometry x="399" y="-186" width="187" height="30" as="geometry" />
        </mxCell>
        <mxCell id="lhRFm5VbXeaRHV50Ai2d-89" value="&lt;span style=&quot;font-size: 12px;&quot;&gt;PullRequest()&lt;/span&gt;" style="text;html=1;align=center;verticalAlign=middle;whiteSpace=wrap;rounded=0;fontSize=16;" vertex="1" parent="1">
          <mxGeometry x="399" y="-152" width="187" height="30" as="geometry" />
        </mxCell>
        <mxCell id="lhRFm5VbXeaRHV50Ai2d-90" style="edgeStyle=none;curved=1;rounded=0;orthogonalLoop=1;jettySize=auto;html=1;exitX=0.5;exitY=1;exitDx=0;exitDy=0;entryX=0.5;entryY=0;entryDx=0;entryDy=0;fontSize=12;startSize=8;endSize=8;endArrow=none;endFill=0;" edge="1" parent="1" target="lhRFm5VbXeaRHV50Ai2d-91">
          <mxGeometry relative="1" as="geometry">
            <mxPoint x="710" y="-110" as="sourcePoint" />
          </mxGeometry>
        </mxCell>
        <mxCell id="lhRFm5VbXeaRHV50Ai2d-91" value="" style="rounded=0;whiteSpace=wrap;html=1;" vertex="1" parent="1">
          <mxGeometry x="697" y="-61" width="26" height="60" as="geometry" />
        </mxCell>
        <mxCell id="lhRFm5VbXeaRHV50Ai2d-92" value="" style="endArrow=classic;html=1;rounded=0;fontSize=12;startSize=8;endSize=8;curved=1;entryX=0;entryY=0.25;entryDx=0;entryDy=0;" edge="1" parent="1" target="lhRFm5VbXeaRHV50Ai2d-91">
          <mxGeometry width="50" height="50" relative="1" as="geometry">
            <mxPoint x="256" y="-43" as="sourcePoint" />
            <mxPoint x="602" y="40" as="targetPoint" />
          </mxGeometry>
        </mxCell>
        <mxCell id="lhRFm5VbXeaRHV50Ai2d-93" value="&lt;span style=&quot;font-size: 12px;&quot;&gt;AgreeOrDisagree()&lt;/span&gt;" style="text;html=1;align=center;verticalAlign=middle;whiteSpace=wrap;rounded=0;fontSize=16;" vertex="1" parent="1">
          <mxGeometry x="405" y="-74" width="187" height="30" as="geometry" />
        </mxCell>
        <mxCell id="lhRFm5VbXeaRHV50Ai2d-98" style="edgeStyle=none;curved=1;rounded=0;orthogonalLoop=1;jettySize=auto;html=1;exitX=0.5;exitY=1;exitDx=0;exitDy=0;entryX=0.5;entryY=0;entryDx=0;entryDy=0;fontSize=12;startSize=8;endSize=8;endArrow=none;endFill=0;" edge="1" parent="1" target="lhRFm5VbXeaRHV50Ai2d-100">
          <mxGeometry relative="1" as="geometry">
            <mxPoint x="3308" y="-332" as="sourcePoint" />
          </mxGeometry>
        </mxCell>
        <mxCell id="lhRFm5VbXeaRHV50Ai2d-99" style="edgeStyle=none;curved=1;rounded=0;orthogonalLoop=1;jettySize=auto;html=1;exitX=0;exitY=0.75;exitDx=0;exitDy=0;fontSize=12;startSize=8;endSize=8;dashed=1;" edge="1" parent="1" source="lhRFm5VbXeaRHV50Ai2d-100">
          <mxGeometry relative="1" as="geometry">
            <mxPoint x="2853" y="-246" as="targetPoint" />
          </mxGeometry>
        </mxCell>
        <mxCell id="lhRFm5VbXeaRHV50Ai2d-100" value="" style="rounded=0;whiteSpace=wrap;html=1;" vertex="1" parent="1">
          <mxGeometry x="3295" y="-293" width="26" height="60" as="geometry" />
        </mxCell>
        <mxCell id="lhRFm5VbXeaRHV50Ai2d-101" value="" style="endArrow=classic;html=1;rounded=0;fontSize=12;startSize=8;endSize=8;curved=1;entryX=0;entryY=0.25;entryDx=0;entryDy=0;" edge="1" parent="1" target="lhRFm5VbXeaRHV50Ai2d-100">
          <mxGeometry width="50" height="50" relative="1" as="geometry">
            <mxPoint x="2854" y="-276" as="sourcePoint" />
            <mxPoint x="3164" y="-271" as="targetPoint" />
          </mxGeometry>
        </mxCell>
        <mxCell id="lhRFm5VbXeaRHV50Ai2d-102" value="&lt;span style=&quot;font-size: 12px;&quot;&gt;WithdrawalReques()&lt;/span&gt;" style="text;html=1;align=center;verticalAlign=middle;whiteSpace=wrap;rounded=0;fontSize=16;" vertex="1" parent="1">
          <mxGeometry x="2964" y="-307" width="265" height="30" as="geometry" />
        </mxCell>
        <mxCell id="lhRFm5VbXeaRHV50Ai2d-103" value="&lt;span style=&quot;font-size: 12px;&quot;&gt;FundTransfer()&lt;/span&gt;" style="text;html=1;align=center;verticalAlign=middle;whiteSpace=wrap;rounded=0;fontSize=16;" vertex="1" parent="1">
          <mxGeometry x="2968" y="-272" width="265" height="30" as="geometry" />
        </mxCell>
        <mxCell id="lhRFm5VbXeaRHV50Ai2d-104" style="edgeStyle=none;curved=1;rounded=0;orthogonalLoop=1;jettySize=auto;html=1;exitX=0.5;exitY=1;exitDx=0;exitDy=0;entryX=0.5;entryY=0;entryDx=0;entryDy=0;fontSize=12;startSize=8;endSize=8;endArrow=none;endFill=0;" edge="1" parent="1" target="lhRFm5VbXeaRHV50Ai2d-106">
          <mxGeometry relative="1" as="geometry">
            <mxPoint x="3308" y="-233" as="sourcePoint" />
          </mxGeometry>
        </mxCell>
        <mxCell id="lhRFm5VbXeaRHV50Ai2d-178" style="edgeStyle=none;curved=1;rounded=0;orthogonalLoop=1;jettySize=auto;html=1;exitX=1;exitY=0.25;exitDx=0;exitDy=0;entryX=0;entryY=0.25;entryDx=0;entryDy=0;fontSize=12;startSize=8;endSize=8;" edge="1" parent="1" source="lhRFm5VbXeaRHV50Ai2d-106" target="lhRFm5VbXeaRHV50Ai2d-176">
          <mxGeometry relative="1" as="geometry" />
        </mxCell>
        <mxCell id="lhRFm5VbXeaRHV50Ai2d-179" style="edgeStyle=none;curved=1;rounded=0;orthogonalLoop=1;jettySize=auto;html=1;exitX=0;exitY=0.75;exitDx=0;exitDy=0;fontSize=12;startSize=8;endSize=8;strokeColor=default;dashed=1;" edge="1" parent="1" source="lhRFm5VbXeaRHV50Ai2d-106">
          <mxGeometry relative="1" as="geometry">
            <mxPoint x="2856.2416948590962" y="-148.85714285714266" as="targetPoint" />
          </mxGeometry>
        </mxCell>
        <mxCell id="lhRFm5VbXeaRHV50Ai2d-106" value="" style="rounded=0;whiteSpace=wrap;html=1;" vertex="1" parent="1">
          <mxGeometry x="3295" y="-194" width="26" height="60" as="geometry" />
        </mxCell>
        <mxCell id="lhRFm5VbXeaRHV50Ai2d-107" value="" style="endArrow=classic;html=1;rounded=0;fontSize=12;startSize=8;endSize=8;curved=1;" edge="1" parent="1">
          <mxGeometry width="50" height="50" relative="1" as="geometry">
            <mxPoint x="2855" y="-175" as="sourcePoint" />
            <mxPoint x="3292" y="-175" as="targetPoint" />
          </mxGeometry>
        </mxCell>
        <mxCell id="lhRFm5VbXeaRHV50Ai2d-108" value="&lt;span style=&quot;color: rgb(0, 0, 0); font-family: Helvetica; font-size: 12px; font-style: normal; font-variant-ligatures: normal; font-variant-caps: normal; font-weight: 400; letter-spacing: normal; orphans: 2; text-align: center; text-indent: 0px; text-transform: none; widows: 2; word-spacing: 0px; -webkit-text-stroke-width: 0px; white-space: normal; background-color: rgb(255, 255, 255); text-decoration-thickness: initial; text-decoration-style: initial; text-decoration-color: initial; display: inline !important; float: none;&quot;&gt;RequestConditionsForCredit()&lt;/span&gt;" style="text;whiteSpace=wrap;html=1;" vertex="1" parent="1">
          <mxGeometry x="3006.9995451863606" y="-198.00404485066724" width="203" height="36" as="geometry" />
        </mxCell>
        <mxCell id="lhRFm5VbXeaRHV50Ai2d-110" style="edgeStyle=none;curved=1;rounded=0;orthogonalLoop=1;jettySize=auto;html=1;exitX=0.5;exitY=1;exitDx=0;exitDy=0;fontSize=12;startSize=8;endSize=8;" edge="1" parent="1" source="lhRFm5VbXeaRHV50Ai2d-111">
          <mxGeometry relative="1" as="geometry">
            <mxPoint x="2854" y="-125" as="targetPoint" />
          </mxGeometry>
        </mxCell>
        <mxCell id="lhRFm5VbXeaRHV50Ai2d-111" value="&lt;span style=&quot;font-size: 22px;&quot;&gt;Customer&lt;/span&gt;" style="rounded=0;whiteSpace=wrap;html=1;" vertex="1" parent="1">
          <mxGeometry x="2785" y="-390" width="138" height="60" as="geometry" />
        </mxCell>
        <mxCell id="lhRFm5VbXeaRHV50Ai2d-112" value="&lt;span style=&quot;font-size: 22px;&quot;&gt;System&lt;/span&gt;" style="rounded=0;whiteSpace=wrap;html=1;" vertex="1" parent="1">
          <mxGeometry x="3239" y="-390" width="138" height="60" as="geometry" />
        </mxCell>
        <mxCell id="lhRFm5VbXeaRHV50Ai2d-113" value="&lt;span style=&quot;font-size: 22px;&quot;&gt;Bank&lt;/span&gt;" style="rounded=0;whiteSpace=wrap;html=1;" vertex="1" parent="1">
          <mxGeometry x="-318" y="-386" width="138" height="60" as="geometry" />
        </mxCell>
        <mxCell id="lhRFm5VbXeaRHV50Ai2d-116" value="&lt;span style=&quot;font-size: 22px;&quot;&gt;Bank&lt;/span&gt;" style="rounded=0;whiteSpace=wrap;html=1;" vertex="1" parent="1">
          <mxGeometry x="1031" y="-386" width="138" height="60" as="geometry" />
        </mxCell>
        <mxCell id="lhRFm5VbXeaRHV50Ai2d-128" value="&lt;span style=&quot;font-size: 22px;&quot;&gt;Bank&lt;/span&gt;" style="rounded=0;whiteSpace=wrap;html=1;" vertex="1" parent="1">
          <mxGeometry x="2301" y="-387" width="138" height="60" as="geometry" />
        </mxCell>
        <mxCell id="lhRFm5VbXeaRHV50Ai2d-134" style="edgeStyle=none;curved=1;rounded=0;orthogonalLoop=1;jettySize=auto;html=1;entryX=0.5;entryY=0;entryDx=0;entryDy=0;fontSize=12;startSize=8;endSize=8;endArrow=none;endFill=0;exitX=0.5;exitY=1;exitDx=0;exitDy=0;" edge="1" parent="1" target="lhRFm5VbXeaRHV50Ai2d-135" source="lhRFm5VbXeaRHV50Ai2d-113">
          <mxGeometry relative="1" as="geometry">
            <mxPoint x="-252" y="-299" as="sourcePoint" />
          </mxGeometry>
        </mxCell>
        <mxCell id="lhRFm5VbXeaRHV50Ai2d-138" style="edgeStyle=none;curved=1;rounded=0;orthogonalLoop=1;jettySize=auto;html=1;exitX=0;exitY=0.75;exitDx=0;exitDy=0;entryX=1;entryY=0.75;entryDx=0;entryDy=0;fontSize=12;startSize=8;endSize=8;dashed=1;" edge="1" parent="1" source="lhRFm5VbXeaRHV50Ai2d-135" target="bqPE5uISUNwUIq3V5RTR-22">
          <mxGeometry relative="1" as="geometry" />
        </mxCell>
        <mxCell id="lhRFm5VbXeaRHV50Ai2d-135" value="" style="rounded=0;whiteSpace=wrap;html=1;" vertex="1" parent="1">
          <mxGeometry x="-262" y="-171" width="26" height="60" as="geometry" />
        </mxCell>
        <mxCell id="lhRFm5VbXeaRHV50Ai2d-139" value="&lt;span style=&quot;color: rgb(0, 0, 0); font-family: Helvetica; font-size: 12px; font-style: normal; font-variant-ligatures: normal; font-variant-caps: normal; font-weight: 400; letter-spacing: normal; orphans: 2; text-align: center; text-indent: 0px; text-transform: none; widows: 2; word-spacing: 0px; -webkit-text-stroke-width: 0px; white-space: normal; background-color: rgb(255, 255, 255); text-decoration-thickness: initial; text-decoration-style: initial; text-decoration-color: initial; display: inline !important; float: none;&quot;&gt;RequestConditionsForDepositeFromBank()&lt;/span&gt;" style="text;whiteSpace=wrap;html=1;" vertex="1" parent="1">
          <mxGeometry x="-562" y="-182" width="237.68" height="36" as="geometry" />
        </mxCell>
        <mxCell id="lhRFm5VbXeaRHV50Ai2d-140" value="&lt;span style=&quot;color: rgb(0, 0, 0); font-family: Helvetica; font-size: 12px; font-style: normal; font-variant-ligatures: normal; font-variant-caps: normal; font-weight: 400; letter-spacing: normal; orphans: 2; text-align: center; text-indent: 0px; text-transform: none; widows: 2; word-spacing: 0px; -webkit-text-stroke-width: 0px; white-space: normal; background-color: rgb(255, 255, 255); text-decoration-thickness: initial; text-decoration-style: initial; text-decoration-color: initial; display: inline !important; float: none;&quot;&gt;PullRequest()&lt;/span&gt;" style="text;whiteSpace=wrap;html=1;" vertex="1" parent="1">
          <mxGeometry x="-509.9971807861328" y="-152.00259816487602" width="101" height="36" as="geometry" />
        </mxCell>
        <mxCell id="lhRFm5VbXeaRHV50Ai2d-144" style="edgeStyle=none;curved=1;rounded=0;orthogonalLoop=1;jettySize=auto;html=1;entryX=0.5;entryY=0;entryDx=0;entryDy=0;fontSize=12;startSize=8;endSize=8;endArrow=none;endFill=0;exitX=0.5;exitY=1;exitDx=0;exitDy=0;" edge="1" parent="1" target="lhRFm5VbXeaRHV50Ai2d-145">
          <mxGeometry relative="1" as="geometry">
            <mxPoint x="1099" y="-325" as="sourcePoint" />
          </mxGeometry>
        </mxCell>
        <mxCell id="lhRFm5VbXeaRHV50Ai2d-151" style="edgeStyle=none;curved=1;rounded=0;orthogonalLoop=1;jettySize=auto;html=1;exitX=0;exitY=0.75;exitDx=0;exitDy=0;entryX=1;entryY=0.75;entryDx=0;entryDy=0;fontSize=12;startSize=8;endSize=8;dashed=1;" edge="1" parent="1" source="lhRFm5VbXeaRHV50Ai2d-145" target="lhRFm5VbXeaRHV50Ai2d-83">
          <mxGeometry relative="1" as="geometry" />
        </mxCell>
        <mxCell id="lhRFm5VbXeaRHV50Ai2d-145" value="" style="rounded=0;whiteSpace=wrap;html=1;" vertex="1" parent="1">
          <mxGeometry x="1086" y="-170" width="26" height="60" as="geometry" />
        </mxCell>
        <mxCell id="lhRFm5VbXeaRHV50Ai2d-146" value="&lt;span style=&quot;color: rgb(0, 0, 0); font-family: Helvetica; font-size: 12px; font-style: normal; font-variant-ligatures: normal; font-variant-caps: normal; font-weight: 400; letter-spacing: normal; orphans: 2; text-align: center; text-indent: 0px; text-transform: none; widows: 2; word-spacing: 0px; -webkit-text-stroke-width: 0px; white-space: normal; background-color: rgb(255, 255, 255); text-decoration-thickness: initial; text-decoration-style: initial; text-decoration-color: initial; display: inline !important; float: none;&quot;&gt;RequestConditionsForDepositeFromBank()&lt;/span&gt;" style="text;whiteSpace=wrap;html=1;" vertex="1" parent="1">
          <mxGeometry x="786" y="-181" width="237.68" height="36" as="geometry" />
        </mxCell>
        <mxCell id="lhRFm5VbXeaRHV50Ai2d-147" value="&lt;span style=&quot;color: rgb(0, 0, 0); font-family: Helvetica; font-size: 12px; font-style: normal; font-variant-ligatures: normal; font-variant-caps: normal; font-weight: 400; letter-spacing: normal; orphans: 2; text-align: center; text-indent: 0px; text-transform: none; widows: 2; word-spacing: 0px; -webkit-text-stroke-width: 0px; white-space: normal; background-color: rgb(255, 255, 255); text-decoration-thickness: initial; text-decoration-style: initial; text-decoration-color: initial; display: inline !important; float: none;&quot;&gt;PullRequest()&lt;/span&gt;" style="text;whiteSpace=wrap;html=1;" vertex="1" parent="1">
          <mxGeometry x="838.0028192138673" y="-151.00259816487602" width="101" height="36" as="geometry" />
        </mxCell>
        <mxCell id="lhRFm5VbXeaRHV50Ai2d-154" style="edgeStyle=none;curved=1;rounded=0;orthogonalLoop=1;jettySize=auto;html=1;exitX=0.5;exitY=1;exitDx=0;exitDy=0;entryX=0.5;entryY=0;entryDx=0;entryDy=0;fontSize=12;startSize=8;endSize=8;endArrow=none;endFill=0;" edge="1" parent="1" target="lhRFm5VbXeaRHV50Ai2d-155">
          <mxGeometry relative="1" as="geometry">
            <mxPoint x="2371" y="-327" as="sourcePoint" />
          </mxGeometry>
        </mxCell>
        <mxCell id="lhRFm5VbXeaRHV50Ai2d-155" value="" style="rounded=0;whiteSpace=wrap;html=1;" vertex="1" parent="1">
          <mxGeometry x="2357" y="-192" width="26" height="60" as="geometry" />
        </mxCell>
        <mxCell id="lhRFm5VbXeaRHV50Ai2d-158" value="&lt;span style=&quot;color: rgb(0, 0, 0); font-family: Helvetica; font-size: 12px; font-style: normal; font-variant-ligatures: normal; font-variant-caps: normal; font-weight: 400; letter-spacing: normal; orphans: 2; text-align: center; text-indent: 0px; text-transform: none; widows: 2; word-spacing: 0px; -webkit-text-stroke-width: 0px; white-space: normal; background-color: rgb(255, 255, 255); text-decoration-thickness: initial; text-decoration-style: initial; text-decoration-color: initial; display: inline !important; float: none;&quot;&gt;RequestConditionsForCredit()&lt;/span&gt;" style="text;whiteSpace=wrap;html=1;" vertex="1" parent="1">
          <mxGeometry x="2106.9995451863606" y="-197.00404485066724" width="203" height="36" as="geometry" />
        </mxCell>
        <mxCell id="lhRFm5VbXeaRHV50Ai2d-161" style="edgeStyle=none;curved=1;rounded=0;orthogonalLoop=1;jettySize=auto;html=1;exitX=0.5;exitY=1;exitDx=0;exitDy=0;entryX=0.5;entryY=0;entryDx=0;entryDy=0;fontSize=12;startSize=8;endSize=8;endArrow=none;endFill=0;" edge="1" parent="1" target="lhRFm5VbXeaRHV50Ai2d-162">
          <mxGeometry relative="1" as="geometry">
            <mxPoint x="2370" y="-131" as="sourcePoint" />
          </mxGeometry>
        </mxCell>
        <mxCell id="lhRFm5VbXeaRHV50Ai2d-169" style="edgeStyle=none;curved=1;rounded=0;orthogonalLoop=1;jettySize=auto;html=1;exitX=0;exitY=0.25;exitDx=0;exitDy=0;fontSize=12;startSize=8;endSize=8;" edge="1" parent="1" source="lhRFm5VbXeaRHV50Ai2d-162">
          <mxGeometry relative="1" as="geometry">
            <mxPoint x="1574" y="83" as="targetPoint" />
          </mxGeometry>
        </mxCell>
        <mxCell id="lhRFm5VbXeaRHV50Ai2d-162" value="" style="rounded=0;whiteSpace=wrap;html=1;" vertex="1" parent="1">
          <mxGeometry x="2357" y="62" width="26" height="60" as="geometry" />
        </mxCell>
        <mxCell id="lhRFm5VbXeaRHV50Ai2d-165" style="edgeStyle=none;curved=1;rounded=0;orthogonalLoop=1;jettySize=auto;html=1;exitX=0.5;exitY=1;exitDx=0;exitDy=0;entryX=0.5;entryY=0;entryDx=0;entryDy=0;fontSize=12;startSize=8;endSize=8;endArrow=none;endFill=0;" edge="1" parent="1" target="lhRFm5VbXeaRHV50Ai2d-166">
          <mxGeometry relative="1" as="geometry">
            <mxPoint x="2024" y="-131" as="sourcePoint" />
          </mxGeometry>
        </mxCell>
        <mxCell id="lhRFm5VbXeaRHV50Ai2d-166" value="" style="rounded=0;whiteSpace=wrap;html=1;" vertex="1" parent="1">
          <mxGeometry x="2011" y="-92" width="26" height="60" as="geometry" />
        </mxCell>
        <mxCell id="lhRFm5VbXeaRHV50Ai2d-167" value="" style="endArrow=classic;html=1;rounded=0;fontSize=12;startSize=8;endSize=8;curved=1;entryX=0;entryY=0.25;entryDx=0;entryDy=0;" edge="1" parent="1" target="lhRFm5VbXeaRHV50Ai2d-166">
          <mxGeometry width="50" height="50" relative="1" as="geometry">
            <mxPoint x="1571" y="-77" as="sourcePoint" />
            <mxPoint x="1609" y="5" as="targetPoint" />
          </mxGeometry>
        </mxCell>
        <mxCell id="lhRFm5VbXeaRHV50Ai2d-168" value="&lt;span style=&quot;color: rgb(0, 0, 0); font-family: Helvetica; font-size: 12px; font-style: normal; font-variant-ligatures: normal; font-variant-caps: normal; font-weight: 400; letter-spacing: normal; orphans: 2; text-align: center; text-indent: 0px; text-transform: none; widows: 2; word-spacing: 0px; -webkit-text-stroke-width: 0px; white-space: normal; background-color: rgb(255, 255, 255); text-decoration-thickness: initial; text-decoration-style: initial; text-decoration-color: initial; display: inline !important; float: none;&quot;&gt;AgreeOrDisagree()&lt;/span&gt;" style="text;whiteSpace=wrap;html=1;" vertex="1" parent="1">
          <mxGeometry x="1712.9194391423998" y="-103.67000233043336" width="129" height="36" as="geometry" />
        </mxCell>
        <mxCell id="lhRFm5VbXeaRHV50Ai2d-173" value="&lt;div style=&quot;text-align: center;&quot;&gt;TransferMoney()&lt;/div&gt;" style="text;whiteSpace=wrap;html=1;" vertex="1" parent="1">
          <mxGeometry x="1874.9994391423998" y="99.99999766956662" width="129" height="36" as="geometry" />
        </mxCell>
        <mxCell id="lhRFm5VbXeaRHV50Ai2d-174" value="&lt;span style=&quot;font-size: 22px;&quot;&gt;Bank&lt;/span&gt;" style="rounded=0;whiteSpace=wrap;html=1;" vertex="1" parent="1">
          <mxGeometry x="3625" y="-387" width="138" height="60" as="geometry" />
        </mxCell>
        <mxCell id="lhRFm5VbXeaRHV50Ai2d-175" style="edgeStyle=none;curved=1;rounded=0;orthogonalLoop=1;jettySize=auto;html=1;exitX=0.5;exitY=1;exitDx=0;exitDy=0;entryX=0.5;entryY=0;entryDx=0;entryDy=0;fontSize=12;startSize=8;endSize=8;endArrow=none;endFill=0;" edge="1" parent="1" target="lhRFm5VbXeaRHV50Ai2d-176">
          <mxGeometry relative="1" as="geometry">
            <mxPoint x="3695" y="-327" as="sourcePoint" />
          </mxGeometry>
        </mxCell>
        <mxCell id="lhRFm5VbXeaRHV50Ai2d-176" value="" style="rounded=0;whiteSpace=wrap;html=1;" vertex="1" parent="1">
          <mxGeometry x="3681" y="-192" width="26" height="60" as="geometry" />
        </mxCell>
        <mxCell id="lhRFm5VbXeaRHV50Ai2d-177" value="&lt;span style=&quot;color: rgb(0, 0, 0); font-family: Helvetica; font-size: 12px; font-style: normal; font-variant-ligatures: normal; font-variant-caps: normal; font-weight: 400; letter-spacing: normal; orphans: 2; text-align: center; text-indent: 0px; text-transform: none; widows: 2; word-spacing: 0px; -webkit-text-stroke-width: 0px; white-space: normal; background-color: rgb(255, 255, 255); text-decoration-thickness: initial; text-decoration-style: initial; text-decoration-color: initial; display: inline !important; float: none;&quot;&gt;RequestConditionsForCredit()&lt;/span&gt;" style="text;whiteSpace=wrap;html=1;" vertex="1" parent="1">
          <mxGeometry x="3418.9995451863606" y="-201.00404485066724" width="203" height="36" as="geometry" />
        </mxCell>
        <mxCell id="lhRFm5VbXeaRHV50Ai2d-180" value="&lt;font style=&quot;font-size: 12px;&quot;&gt;Disagree()&lt;/font&gt;&lt;div style=&quot;font-size: 12px;&quot;&gt;&lt;br&gt;&lt;/div&gt;" style="text;html=1;align=center;verticalAlign=middle;resizable=0;points=[];autosize=1;strokeColor=none;fillColor=none;fontSize=16;" vertex="1" parent="1">
          <mxGeometry x="3043" y="-143" width="74" height="46" as="geometry" />
        </mxCell>
      </root>
    </mxGraphModel>
  </diagram>
</mxfile>
